<?xml version="1.0" standalone="no"?>
<!DOCTYPE svg PUBLIC "-//W3C//DTD SVG 1.1//EN" "http://www.w3.org/Graphics/SVG/1.1/DTD/svg11.dtd" >
<svg xmlns="http://www.w3.org/2000/svg">
<metadata>Generated by IcoMoon</metadata>
<defs>
<font id="plejd" horiz-adv-x="1024">
<font-face units-per-em="1024" ascent="957.44" descent="-66.56" />
<missing-glyph horiz-adv-x="1024" />
<glyph unicode="&#x20;" horiz-adv-x="512" d="" />
<glyph unicode="&#x100;" glyph-name="area_add" d="M936.96 192v-128c0-22.528-18.432-40.96-40.96-40.96h-768c-22.528 0-40.96 18.432-40.96 40.96v128c0 8.704 6.656 15.36 15.36 15.36s15.36-6.656 15.36-15.36v-128c0-5.632 4.608-10.24 10.24-10.24h768c5.632 0 10.24 4.608 10.24 10.24v128c0 8.704 6.656 15.36 15.36 15.36s15.36-6.656 15.36-15.36zM189.44 448c0 177.664 144.896 322.56 322.56 322.56s322.56-144.896 322.56-322.56c0-177.664-144.896-322.56-322.56-322.56s-322.56 144.896-322.56 322.56zM220.16 448c0-160.768 131.072-291.84 291.84-291.84s291.84 131.072 291.84 291.84c0 160.768-131.072 291.84-291.84 291.84s-291.84-131.072-291.84-291.84zM358.4 432.64h138.24v-138.24c0-8.704 6.656-15.36 15.36-15.36s15.36 6.656 15.36 15.36v138.24h138.24c8.704 0 15.36 6.656 15.36 15.36s-6.656 15.36-15.36 15.36h-138.24v138.24c0 8.704-6.656 15.36-15.36 15.36s-15.36-6.656-15.36-15.36v-138.24h-138.24c-8.704 0-15.36-6.656-15.36-15.36s6.656-15.36 15.36-15.36z" />
<glyph unicode="&#x101;" glyph-name="area_bathroom" d="M933.888 196.608v-123.392c0-22.528-18.432-40.96-40.96-40.96h-768c-22.528 0-40.96 18.432-40.96 40.96v123.392c0 8.704 6.656 15.36 15.36 15.36s15.36-6.656 15.36-15.36v-123.392c0-5.632 4.608-10.24 10.24-10.24h768c5.632 0 10.24 4.608 10.24 10.24v123.392c0 8.704 6.656 15.36 15.36 15.36s15.36-6.656 15.36-15.36zM212.992 512c-7.68 10.752-9.728 25.088-5.12 37.376 16.384 45.056 42.496 84.992 74.752 117.248 59.392 59.392 140.8 94.72 228.352 94.72 135.168 0 257.024-85.504 303.104-212.48 4.608-12.8 2.56-26.624-5.12-37.376s-19.968-17.408-33.792-17.408h-528.896c-13.312 0-25.6 6.656-33.28 17.92zM238.080 529.408c1.024-1.536 3.584-4.608 8.192-4.608h529.408c4.608 0 7.68 3.072 8.192 4.608 1.024 1.536 3.072 5.12 1.024 9.216-41.984 114.688-152.064 192-274.432 192s-232.448-77.312-274.432-192c-1.024-4.096 1.024-7.68 2.048-9.216zM527.872 454.656c0 8.704-6.656 15.36-15.36 15.36s-15.36-6.656-15.36-15.36v-30.72c0-8.704 6.656-15.36 15.36-15.36s15.36 6.656 15.36 15.36v30.72zM527.872 374.784c0 8.704-6.656 15.36-15.36 15.36s-15.36-6.656-15.36-15.36v-49.152c0-8.704 6.656-15.36 15.36-15.36s15.36 6.656 15.36 15.36v49.152zM527.872 276.48c0 8.704-6.656 15.36-15.36 15.36s-15.36-6.656-15.36-15.36v-49.152c0-8.704 6.656-15.36 15.36-15.36s15.36 6.656 15.36 15.36v49.152zM512.512 193.536c-8.704 0-15.36-6.656-15.36-15.36v-30.72c0-8.704 6.656-15.36 15.36-15.36s15.36 6.656 15.36 15.36v30.72c0 8.192-6.656 15.36-15.36 15.36zM637.44 420.864l-7.68 29.696c-2.048 8.192-10.752 13.312-18.944 10.752-8.192-2.048-13.312-10.752-10.752-18.944l7.68-29.696c2.048-7.168 8.192-11.264 14.848-11.264 1.024 0 2.56 0 4.096 0.512 8.192 2.048 12.8 10.752 10.752 18.944zM631.808 321.536c2.048-7.168 8.192-11.264 14.848-11.264 1.024 0 2.56 0 4.096 0.512 8.192 2.048 13.312 10.752 10.752 18.944l-11.776 45.568c-2.048 8.192-10.752 13.312-18.944 10.752-8.192-2.048-13.312-10.752-10.752-18.944l11.776-45.568zM651.264 245.76c2.048-7.168 8.192-11.264 14.848-11.264 1.024 0 2.56 0 4.096 0.512 8.192 2.048 13.312 10.752 10.752 18.944l-7.68 29.696c-2.048 8.192-10.752 13.312-18.944 10.752-8.192-2.048-13.312-10.752-10.752-18.944l7.68-29.696zM417.28 413.184l7.68 29.696c2.048 8.192-2.56 16.384-10.752 18.944-8.192 2.048-16.384-2.56-18.944-10.752l-7.68-29.696c-2.048-8.192 2.56-16.384 10.752-18.944 1.536-0.512 2.56-0.512 4.096-0.512 6.656-0.512 12.8 4.096 14.848 11.264zM393.216 321.536l11.776 45.568c2.048 8.192-2.56 16.384-10.752 18.944-8.192 2.048-16.384-2.56-18.944-10.752l-11.776-45.568c-2.048-8.192 2.56-16.384 10.752-18.944 1.536-0.512 2.56-0.512 4.096-0.512 7.168-0.512 13.312 4.096 14.848 11.264zM370.688 294.4c-8.192 2.048-16.384-2.56-18.944-10.752l-7.68-29.696c-2.048-8.192 2.56-16.384 10.752-18.944 1.536-0.512 2.56-0.512 4.096-0.512 6.656 0 13.312 4.608 14.848 11.264l7.68 29.696c2.048 8.192-2.56 16.384-10.752 18.944zM745.472 427.008l-14.848 27.136c-4.096 7.68-13.312 10.24-20.992 6.144s-10.24-13.312-6.144-20.992l14.848-27.136c2.56-5.12 8.192-8.192 13.312-8.192 2.56 0 5.12 0.512 7.168 2.048 7.68 4.096 10.752 13.312 6.656 20.992zM755.2 344.576c2.56-5.12 8.192-8.192 13.312-8.192 2.56 0 5.12 0.512 7.168 2.048 7.68 4.096 10.24 13.312 6.144 20.992l-14.848 27.136c-4.096 7.68-13.312 10.24-20.992 6.144s-10.24-13.312-6.144-20.992l15.36-27.136zM306.688 412.16l14.848 27.136c4.096 7.68 1.024 16.896-6.144 20.992-7.68 4.096-16.896 1.024-20.992-6.144l-14.848-27.136c-4.096-7.68-1.024-16.896 6.144-20.992 2.56-1.024 4.608-2.048 7.168-2.048 5.632 0 10.752 3.072 13.824 8.192zM278.528 392.704c-7.68 4.096-16.896 1.024-20.992-6.144l-14.848-27.136c-4.096-7.68-1.024-16.896 6.144-20.992 2.56-1.024 4.608-2.048 7.168-2.048 5.632 0 10.752 3.072 13.312 8.192l14.848 27.136c4.608 7.68 1.536 16.896-5.632 20.992z" />
<glyph unicode="&#x102;" glyph-name="area_cabin" d="M936.96 192v-128c0-22.528-18.432-40.96-40.96-40.96h-768c-22.528 0-40.96 18.432-40.96 40.96v128c0 8.704 6.656 15.36 15.36 15.36s15.36-6.656 15.36-15.36v-128c0-5.632 4.608-10.24 10.24-10.24h768c5.632 0 10.24 4.608 10.24 10.24v128c0 8.704 6.656 15.36 15.36 15.36s15.36-6.656 15.36-15.36zM204.8 448c0 169.472 137.728 307.2 307.2 307.2s307.2-137.728 307.2-307.2c0-169.472-137.728-307.2-307.2-307.2s-307.2 137.728-307.2 307.2zM512 171.52c70.656 0 135.168 26.624 184.32 70.656l-50.688 50.688c-35.84-30.72-82.432-49.664-133.632-49.664s-97.792 18.944-133.632 49.664l-50.688-50.688c49.152-44.032 113.664-70.656 184.32-70.656zM645.632 336.384c25.6 30.208 40.448 69.12 40.448 111.616s-15.36 81.408-40.448 111.616l-112.128-111.616 112.128-111.616zM512 426.496l-111.616-111.616c30.208-25.6 69.12-40.448 111.616-40.448s81.408 15.36 111.616 40.448l-111.616 111.616zM623.616 581.632c-30.208 25.6-69.12 40.448-111.616 40.448s-81.408-15.36-111.616-40.448l111.616-112.128 111.616 112.128zM378.368 559.616c-25.088-30.208-40.448-69.12-40.448-111.616s15.36-81.408 40.448-111.616l112.128 111.616-112.128 111.616zM788.48 448c0 70.656-26.624 135.168-70.656 184.32l-50.688-50.688c30.72-35.84 49.664-82.432 49.664-133.632s-18.944-97.792-49.664-133.632l50.688-50.688c44.032 49.152 70.656 113.664 70.656 184.32zM512 724.48c-70.656 0-135.168-26.624-184.32-70.656l50.688-50.688c35.84 30.72 82.432 49.664 133.632 49.664s97.792-18.944 133.632-49.664l50.688 50.688c-49.152 44.032-113.664 70.656-184.32 70.656zM235.52 448c0-70.656 26.624-135.168 70.656-184.32l50.688 50.688c-30.72 35.84-49.664 82.432-49.664 133.632s18.944 97.792 49.664 133.632l-50.688 50.688c-44.032-49.152-70.656-113.664-70.656-184.32z" />
<glyph unicode="&#x103;" glyph-name="area_cinema" d="M933.888 196.608v-123.392c0-22.528-18.432-40.96-40.96-40.96h-768c-22.528 0-40.96 18.432-40.96 40.96v123.392c0 8.704 6.656 15.36 15.36 15.36s15.36-6.656 15.36-15.36v-123.392c0-5.632 4.608-10.24 10.24-10.24h768c5.632 0 10.24 4.608 10.24 10.24v123.392c0 8.704 6.656 15.36 15.36 15.36s15.36-6.656 15.36-15.36zM185.344 448c0 177.664 144.896 322.56 322.56 322.56s322.56-144.896 322.56-322.56c0-129.024-75.776-240.128-185.344-291.84h178.688c8.704 0 15.36-6.656 15.36-15.36s-6.656-15.36-15.36-15.36h-307.2c-0.512 0-1.024 0-1.536 0-2.048 0-4.608 0-6.656 0-178.688 0-323.072 144.896-323.072 322.56zM216.064 448c0-160.768 131.072-291.84 291.84-291.84s291.84 131.072 291.84 291.84-131.072 291.84-291.84 291.84-291.84-131.072-291.84-291.84zM287.744 448c0 50.688 41.472 92.16 92.16 92.16 19.456 0 37.376-6.144 51.712-15.872-10.24 14.848-15.872 32.768-15.872 51.712 0 50.688 41.472 92.16 92.16 92.16s92.16-41.472 92.16-92.16c0-19.456-6.144-37.376-15.872-51.712 14.848 10.24 32.768 15.872 51.712 15.872 50.688 0 92.16-41.472 92.16-92.16s-41.472-92.16-92.16-92.16c-19.456 0-37.376 6.144-51.712 15.872 10.24-14.848 15.872-32.768 15.872-51.712 0-50.688-41.472-92.16-92.16-92.16s-92.16 41.472-92.16 92.16c0 19.456 6.144 37.376 15.872 51.712-14.848-10.24-32.768-15.872-51.712-15.872-51.2 0-92.16 41.472-92.16 92.16zM574.464 448c0-33.792 27.648-61.44 61.44-61.44s61.44 27.648 61.44 61.44-27.648 61.44-61.44 61.44c-34.304 0-61.44-27.648-61.44-61.44zM446.464 576c0-33.792 27.648-61.44 61.44-61.44s61.44 27.648 61.44 61.44-27.648 61.44-61.44 61.44c-34.304 0-61.44-27.648-61.44-61.44zM543.744 448c0 19.456 6.144 37.376 15.872 51.712-14.848-10.24-32.768-15.872-51.712-15.872s-37.376 6.144-51.712 15.872c10.24-14.848 15.872-32.768 15.872-51.712s-6.144-37.376-15.872-51.712c14.848 10.24 32.768 15.872 51.712 15.872s37.376-6.144 51.712-15.872c-10.24 14.336-15.872 32.256-15.872 51.712zM446.464 320c0-33.792 27.648-61.44 61.44-61.44s61.44 27.648 61.44 61.44-27.648 61.44-61.44 61.44-61.44-27.648-61.44-61.44zM318.464 448c0-33.792 27.648-61.44 61.44-61.44s61.44 27.648 61.44 61.44-27.648 61.44-61.44 61.44c-34.304 0-61.44-27.648-61.44-61.44z" />
<glyph unicode="&#x104;" glyph-name="area_dressing" d="M933.888 196.608v-123.392c0-22.528-18.432-40.96-40.96-40.96h-768c-22.528 0-40.96 18.432-40.96 40.96v123.392c0 8.704 6.656 15.36 15.36 15.36s15.36-6.656 15.36-15.36v-123.392c0-5.632 4.608-10.24 10.24-10.24h768c5.632 0 10.24 4.608 10.24 10.24v123.392c0 8.704 6.656 15.36 15.36 15.36s15.36-6.656 15.36-15.36zM213.504 186.88c0 6.144 1.024 12.288 2.56 17.92 0 0.512 0.512 1.024 0.512 1.536l4.096 9.216c0.512 1.024 1.024 2.048 1.536 3.072l126.464 171.52-52.736 312.32c0 0.512 0 1.024 0 1.024 0 1.536 0 3.584 0 5.12 0 2.048 0 3.584 0 5.12 2.56 31.232 29.696 56.32 61.44 56.32h31.744c7.168 0 13.312-5.12 14.848-12.288 8.192-36.864 58.368-94.72 108.032-94.72s99.84 57.856 108.032 95.232c1.536 7.168 7.68 12.288 14.848 12.288h30.72c33.792 0 61.44-27.648 61.44-61.44 0-0.512 0-1.024 0-2.048l-38.4-316.928 113.152-171.008c3.072-5.12 5.632-10.24 7.168-15.872 0 0 0 0 0 0 1.536-5.632 2.048-10.752 2.048-16.384 0-33.792-27.648-61.44-61.44-61.44h-474.624c-34.304 0-61.44 27.648-61.44 61.44zM378.368 401.92h280.576l37.376 308.224c-0.512 16.384-13.824 29.696-30.72 29.696h-18.944c-7.68-22.528-23.552-46.080-44.032-66.048-28.16-26.624-59.904-41.472-90.624-41.472s-62.464 14.848-90.624 41.472c-20.48 19.456-36.352 43.52-44.032 66.048h-19.968c-15.872 0-29.184-12.288-30.72-28.16 0-1.024 0-1.536 0-2.56 0-0.512 0-1.536 0-2.048l51.712-305.152zM244.224 186.88c0-16.896 13.824-30.72 30.72-30.72h474.624c16.896 0 30.72 13.824 30.72 30.72 0 2.56-0.512 5.632-1.024 8.192-1.024 2.56-2.048 5.12-3.584 7.68l-111.616 168.448h-291.328l-124.928-168.96-3.072-6.656c-0.512-3.072-0.512-6.144-0.512-8.704z" />
<glyph unicode="&#x105;" glyph-name="area_gym" d="M206.848 322.048h61.44v-23.040c0-8.704 6.656-15.36 15.36-15.36h115.2c8.704 0 15.36 6.656 15.36 15.36v138.24h199.68v-138.24c0-8.704 6.656-15.36 15.36-15.36h115.2c8.704 0 15.36 6.656 15.36 15.36v23.040h61.44c8.704 0 15.36 6.656 15.36 15.36v230.4c0 8.704-6.656 15.36-15.36 15.36h-61.44v23.040c0 8.704-6.656 15.36-15.36 15.36h-115.2c-8.704 0-15.36-6.656-15.36-15.36v-138.24h-199.68v138.24c0 8.704-6.656 15.36-15.36 15.36h-115.2c-8.704 0-15.36-6.656-15.36-15.36v-23.040h-61.44c-8.704 0-15.36-6.656-15.36-15.36v-230.4c0-8.192 7.168-15.36 15.36-15.36zM759.808 552.448h46.080v-199.68h-46.080v199.68zM644.608 590.848h84.48v-276.48h-84.48v276.48zM299.008 337.408v253.44h84.48v-276.48h-84.48v23.040zM222.208 552.448h46.080v-199.68h-46.080v199.68zM918.528 211.968c-8.704 0-15.36-6.656-15.36-15.36v-123.392c0-5.632-4.608-10.24-10.24-10.24h-768c-5.632 0-10.24 4.608-10.24 10.24v123.392c0 8.704-6.656 15.36-15.36 15.36s-15.36-6.656-15.36-15.36v-123.392c0-22.528 18.432-40.96 40.96-40.96h768c22.528 0 40.96 18.432 40.96 40.96v123.392c0 8.704-6.656 15.36-15.36 15.36z" />
<glyph unicode="&#x106;" glyph-name="area_hall" d="M936.96 202.752v-123.392c0-22.528-18.432-40.96-40.96-40.96h-768c-22.528 0-40.96 18.432-40.96 40.96v123.392c0 8.704 6.656 15.36 15.36 15.36s15.36-6.656 15.36-15.36v-123.392c0-5.632 4.608-10.24 10.24-10.24h768c5.632 0 10.24 4.608 10.24 10.24v123.392c0 8.704 6.656 15.36 15.36 15.36s15.36-7.168 15.36-15.36zM398.336 143.872h227.328c8.704 0 15.36 6.656 15.36 15.36s-6.656 15.36-15.36 15.36h-98.304v183.296l97.792 97.792c6.144 6.144 6.144 15.872 0 21.504-6.144 6.144-15.872 6.144-21.504 0l-76.288-75.776v110.080l97.792 97.792c6.144 6.144 6.144 15.872 0 21.504-6.144 6.144-15.872 6.144-21.504 0l-76.288-75.776v218.624c0 8.704-6.656 15.36-15.36 15.36s-15.36-6.656-15.36-15.36v-116.736l-76.288 76.8c-6.144 6.144-15.872 6.144-21.504 0-6.144-6.144-6.144-15.872 0-21.504l97.792-98.304v-110.080l-76.288 76.288c-6.144 6.144-15.872 6.144-21.504 0-6.144-6.144-6.144-15.872 0-21.504l97.792-98.304v-285.696h-98.304c-8.704 0-15.36-6.656-15.36-15.36s7.168-15.36 15.36-15.36z" />
<glyph unicode="&#x107;" glyph-name="area_kitchen" d="M210.944 480.256h28.672c-1.024-3.072-1.536-6.656-1.536-10.24v-243.2c0-22.528 18.432-40.96 40.96-40.96h459.776c22.528 0 40.96 18.432 40.96 40.96v243.2c0 3.584-0.512 7.168-1.536 10.24h28.672c8.704 0 15.36 6.656 15.36 15.36s-6.656 15.36-15.36 15.36h-33.792c-25.6 104.96-123.904 170.496-264.192 170.496s-238.080-65.024-263.68-170.496h-34.304c-8.704 0-15.36-6.656-15.36-15.36 0-8.192 6.656-15.36 15.36-15.36zM337.92 600.576c41.984 32.256 102.912 50.176 171.52 50.176s129.024-17.92 171.52-50.176c30.208-23.040 50.688-53.248 60.928-89.088h-465.408c10.752 35.328 31.232 66.048 61.44 89.088zM268.8 453.12c0 7.168 0.512 14.336 1.024 21.504 1.536 3.584 5.12 6.144 9.216 6.144h459.776c4.096 0 7.68-2.56 9.216-6.144 0.512-7.168 1.024-13.824 1.024-21.504v-226.304c0-5.632-4.608-10.24-10.24-10.24h-459.776c-5.632 0-10.24 4.608-10.24 10.24v226.304zM466.432 693.248h84.992c8.704 0 15.36 6.656 15.36 15.36s-6.656 15.36-15.36 15.36h-84.992c-8.704 0-15.36-6.656-15.36-15.36 0-8.192 7.168-15.36 15.36-15.36zM918.528 211.968c-8.704 0-15.36-6.656-15.36-15.36v-123.392c0-5.632-4.608-10.24-10.24-10.24h-768c-5.632 0-10.24 4.608-10.24 10.24v123.392c0 8.704-6.656 15.36-15.36 15.36s-15.36-6.656-15.36-15.36v-123.392c0-22.528 18.432-40.96 40.96-40.96h768c22.528 0 40.96 18.432 40.96 40.96v123.392c0 8.704-6.656 15.36-15.36 15.36z" />
<glyph unicode="&#x108;" glyph-name="area_livingroom" d="M933.888 196.608v-123.392c0-22.528-18.432-40.96-40.96-40.96h-768c-22.528 0-40.96 18.432-40.96 40.96v123.392c0 8.704 6.656 15.36 15.36 15.36s15.36-6.656 15.36-15.36v-123.392c0-5.632 4.608-10.24 10.24-10.24h768c5.632 0 10.24 4.608 10.24 10.24v123.392c0 8.704 6.656 15.36 15.36 15.36s15.36-6.656 15.36-15.36zM173.056 239.616v276.992c0 8.704 6.656 15.36 15.36 15.36h26.624c2.56 148.992 118.272 244.736 296.96 244.736s294.4-95.744 296.96-244.736h26.624c8.704 0 15.36-6.656 15.36-15.36v-276.992c0-8.704-6.656-15.36-15.36-15.36h-128.512v-76.8c0-8.704-6.656-15.36-15.36-15.36s-15.36 6.656-15.36 15.36v76.8h-338.944v-76.8c0-8.704-6.656-15.36-15.36-15.36s-15.36 6.656-15.36 15.36v76.8h-118.272c-8.192 0-15.36 6.656-15.36 15.36zM681.472 363.008h-338.944v-108.032h338.944v108.032zM712.192 501.248v-246.272h108.032v246.272h-108.032zM245.76 531.968h81.408c8.704 0 15.36-6.656 15.36-15.36v-123.392h338.944v123.392c0 8.704 6.656 15.36 15.36 15.36h81.408c-1.536 66.048-27.648 120.832-76.288 158.208-46.592 35.84-114.176 55.808-189.952 55.808s-142.848-19.968-189.952-55.808c-48.64-37.376-74.752-92.16-76.288-158.208zM203.776 254.976h108.032v246.272h-108.032v-246.272z" />
<glyph unicode="&#x109;" glyph-name="area_lounge" d="M936.96 192v-128c0-22.528-18.432-40.96-40.96-40.96h-768c-22.528 0-40.96 18.432-40.96 40.96v128c0 8.704 6.656 15.36 15.36 15.36s15.36-6.656 15.36-15.36v-128c0-5.632 4.608-10.24 10.24-10.24h768c5.632 0 10.24 4.608 10.24 10.24v128c0 8.704 6.656 15.36 15.36 15.36s15.36-6.656 15.36-15.36zM189.44 268.8v153.6c0 22.528 18.432 40.96 40.96 40.96h61.44v266.24c0 22.528 18.432 40.96 40.96 40.96h358.4c22.528 0 40.96-18.432 40.96-40.96v-266.24h61.44c22.528 0 40.96-18.432 40.96-40.96v-153.6c0-22.528-18.432-40.96-40.96-40.96h-61.44v-87.040c0-8.704-6.656-15.36-15.36-15.36s-15.36 6.656-15.36 15.36v87.040h-378.88v-87.040c0-8.704-6.656-15.36-15.36-15.36s-15.36 6.656-15.36 15.36v87.040h-61.44c-22.528 0-40.96 18.432-40.96 40.96zM322.56 258.56h378.88v122.88h-378.88v-122.88zM732.16 432.64v-174.080h61.44c5.632 0 10.24 4.608 10.24 10.24v153.6c0 5.632-4.608 10.24-10.24 10.24h-61.44zM322.56 448v-35.84h378.88v317.44c0 5.632-4.608 10.24-10.24 10.24h-358.4c-5.632 0-10.24-4.608-10.24-10.24v-281.6zM220.16 268.8c0-5.632 4.608-10.24 10.24-10.24h61.44v174.080h-61.44c-5.632 0-10.24-4.608-10.24-10.24v-153.6z" />
<glyph unicode="&#x10a;" glyph-name="area_officecopy" d="M933.888 196.608v-123.392c0-22.528-18.432-40.96-40.96-40.96h-768c-22.528 0-40.96 18.432-40.96 40.96v123.392c0 8.704 6.656 15.36 15.36 15.36s15.36-6.656 15.36-15.36v-123.392c0-5.632 4.608-10.24 10.24-10.24h768c5.632 0 10.24 4.608 10.24 10.24v123.392c0 8.704 6.656 15.36 15.36 15.36s15.36-6.656 15.36-15.36zM189.44 652.8c0 8.704 6.656 15.36 15.36 15.36h138.24v61.44c0 22.528 18.432 40.96 40.96 40.96h256c22.528 0 40.96-18.432 40.96-40.96v-61.44h138.24c8.704 0 15.36-6.656 15.36-15.36s-6.656-15.36-15.36-15.36h-37.376l-47.616-475.136c-2.048-20.992-19.456-36.864-40.96-36.864h-363.52c-20.992 0-38.912 15.872-40.96 36.864l-46.592 475.136h-37.376c-8.704 0-15.36 6.656-15.36 15.36zM373.76 668.16h276.48v61.44c0 5.632-4.608 10.24-10.24 10.24h-256c-5.632 0-10.24-4.608-10.24-10.24v-61.44zM272.896 637.44l47.104-472.064c0.512-5.12 5.12-9.216 10.24-9.216h363.008c5.12 0 9.728 4.096 10.24 9.216l47.104 472.064h-477.696z" />
<glyph unicode="&#x10b;" glyph-name="area_office" d="M442.88 663.040c1.024-1.024 2.56-1.536 4.096-2.048 4.096-1.536 41.984-15.872 65.536-15.872 23.040 0 60.928 14.336 65.536 16.384 1.536 0.512 2.56 1.536 4.096 2.048 20.48 15.872 15.36 41.984 14.336 45.056 0 0.512 0 1.024-0.512 1.024l-9.216 28.16c0 0.512 0 0.512-0.512 1.024-8.192 20.992-26.112 28.16-28.16 28.672-1.536 0.512-3.584 1.024-5.632 1.024h-80.896c-2.048 0-3.584-0.512-5.632-1.024s-19.968-8.192-28.16-28.672c0-0.512-0.512-0.512-0.512-1.024l-9.216-29.184c0-0.512 0-0.512 0-1.024-2.56-10.752-2.048-31.744 14.848-44.544zM458.24 699.392l8.704 27.648c2.56 5.632 6.144 8.704 8.704 9.728h73.728c2.56-1.536 6.144-4.608 8.704-10.24l8.704-26.624c0.512-1.536 1.024-8.192-2.048-12.288-14.336-5.632-39.424-13.312-51.712-13.312-13.824 0-39.936 8.704-51.712 12.8-4.608 5.12-3.584 11.264-3.072 12.288zM388.608 223.744l113.664-88.576c2.56-2.048 6.144-3.072 9.216-3.072s6.656 1.024 9.216 3.072l113.664 88.576c4.608 3.584 6.656 9.216 5.632 14.848l-62.976 382.976c-0.512 4.608-3.584 8.704-7.68 10.752s-8.704 2.56-13.312 1.024c-4.096-1.536-26.112-5.12-45.056-7.68-18.944 2.56-40.96 6.144-45.056 7.68s-9.216 1.536-13.312-1.024c-4.096-2.048-6.656-6.144-7.68-10.752l-62.976-382.976c0-5.632 2.56-11.264 6.656-14.848zM473.6 600.576c11.776-2.048 26.112-4.096 36.352-5.632 1.536 0 3.072 0 4.096 0 10.24 1.536 24.576 3.584 36.352 5.632l58.88-357.888-97.28-75.776-97.28 75.776 58.88 357.888zM933.888 196.608v-123.392c0-22.528-18.432-40.96-40.96-40.96h-768c-22.528 0-40.96 18.432-40.96 40.96v123.392c0 8.704 6.656 15.36 15.36 15.36s15.36-6.656 15.36-15.36v-123.392c0-5.632 4.608-10.24 10.24-10.24h768c5.632 0 10.24 4.608 10.24 10.24v123.392c0 8.704 6.656 15.36 15.36 15.36s15.36-6.656 15.36-15.36z" />
<glyph unicode="&#x10c;" glyph-name="area_outside" d="M936.96 192v-128c0-22.528-18.432-40.96-40.96-40.96h-768c-22.528 0-40.96 18.432-40.96 40.96v128c0 8.704 6.656 15.36 15.36 15.36s15.36-6.656 15.36-15.36v-128c0-5.632 4.608-10.24 10.24-10.24h768c5.632 0 10.24 4.608 10.24 10.24v128c0 8.704 6.656 15.36 15.36 15.36s15.36-6.656 15.36-15.36zM189.44 417.792c-1.024 46.080 15.872 89.6 47.616 122.368 31.232 32.256 72.704 50.176 117.248 51.2 28.16 76.8 101.376 128 183.296 128 103.936 0 189.44-82.432 194.56-184.832 59.904-17.92 102.4-73.728 102.4-137.728 0-63.488-42.496-119.296-102.4-137.216v-6.144h-370.688c-92.16 0-169.472 73.728-172.032 164.352zM220.16 418.304c2.048-74.24 65.536-134.144 141.312-134.144h340.992l11.264 2.048c52.224 10.752 90.112 56.832 90.112 110.592 0 53.248-37.888 99.84-90.112 110.592l-12.288 2.56v14.848c0 90.112-73.728 163.84-163.84 163.84-70.144 0-132.608-44.544-155.136-111.104-3.584-10.24-12.8-16.896-24.064-16.896 0 0 0 0 0 0-37.888 0-73.216-14.848-99.328-41.984-26.112-26.624-39.936-62.464-38.912-100.352z" />
<glyph unicode="&#x10d;" glyph-name="area_owner" d="M936.96 192v-128c0-22.528-18.432-40.96-40.96-40.96h-768c-22.528 0-40.96 18.432-40.96 40.96v128c0 8.704 6.656 15.36 15.36 15.36s15.36-6.656 15.36-15.36v-128c0-5.632 4.608-10.24 10.24-10.24h768c5.632 0 10.24 4.608 10.24 10.24v128c0 8.704 6.656 15.36 15.36 15.36s15.36-6.656 15.36-15.36zM189.44 140.8v102.4c0 65.024 52.736 117.76 117.76 117.76h409.6c65.024 0 117.76-52.736 117.76-117.76v-102.4c0-8.704-6.656-15.36-15.36-15.36h-614.4c-8.704 0-15.36 6.656-15.36 15.36zM220.16 156.16h583.68v87.040c0 48.128-38.912 87.040-87.040 87.040h-409.6c-48.128 0-87.040-38.912-87.040-87.040v-87.040zM343.040 601.6c0 93.184 75.776 168.96 168.96 168.96s168.96-75.776 168.96-168.96-75.776-168.96-168.96-168.96-168.96 75.776-168.96 168.96zM373.76 601.6c0-76.288 61.952-138.24 138.24-138.24s138.24 61.952 138.24 138.24-61.952 138.24-138.24 138.24-138.24-61.952-138.24-138.24z" />
<glyph unicode="&#x10e;" glyph-name="area_remove" d="M373.248 330.752l117.248 117.248-117.248 117.248c-6.144 6.144-6.144 15.872 0 21.504 6.144 6.144 15.872 6.144 21.504 0l117.248-117.248 117.248 117.248c6.144 6.144 15.872 6.144 21.504 0 6.144-6.144 6.144-15.872 0-21.504l-117.248-117.248 117.248-117.248c6.144-6.144 6.144-15.872 0-21.504-3.072-3.072-7.168-4.608-10.752-4.608s-7.68 1.536-10.752 4.608l-117.248 117.248-117.248-117.248c-3.072-3.072-7.168-4.608-10.752-4.608s-7.68 1.536-10.752 4.608c-6.144 5.632-6.144 15.872 0 21.504zM189.44 448c0 177.664 144.896 322.56 322.56 322.56s322.56-144.896 322.56-322.56c0-177.664-144.896-322.56-322.56-322.56s-322.56 144.896-322.56 322.56zM220.16 448c0-160.768 131.072-291.84 291.84-291.84s291.84 131.072 291.84 291.84-131.072 291.84-291.84 291.84-291.84-131.072-291.84-291.84zM928.256 214.528c-8.704 0-15.36-6.656-15.36-15.36v-123.392c0-5.632-4.608-10.24-10.24-10.24h-768c-5.632 0-10.24 4.608-10.24 10.24v123.392c0 8.704-6.656 15.36-15.36 15.36s-15.36-6.656-15.36-15.36v-123.392c0-22.528 18.432-40.96 40.96-40.96h768c22.528 0 40.96 18.432 40.96 40.96v123.392c0 8.704-6.656 15.36-15.36 15.36z" />
<glyph unicode="&#x10f;" glyph-name="area_selector" d="M936.96 202.752v-123.392c0-22.528-18.432-40.96-40.96-40.96h-768c-22.528 0-40.96 18.432-40.96 40.96v123.392c0 8.704 6.656 15.36 15.36 15.36s15.36-6.656 15.36-15.36v-123.392c0-5.632 4.608-10.24 10.24-10.24h768c5.632 0 10.24 4.608 10.24 10.24v123.392c0 8.704 6.656 15.36 15.36 15.36s15.36-7.168 15.36-15.36zM174.080 466.432c0 177.664 144.896 322.56 322.56 322.56s322.56-144.896 322.56-322.56c0-177.664-144.896-322.56-322.56-322.56s-322.56 144.896-322.56 322.56zM787.968 451.072h-71.68c-7.68-109.056-95.232-196.608-204.288-204.288v-71.68c148.48 7.68 268.288 127.488 275.968 275.968zM512 686.080c109.056-7.68 196.608-95.232 204.288-204.288h71.68c-7.68 148.48-127.488 268.288-275.968 275.968v-71.68zM481.28 568.832v86.528c-92.16-7.68-165.888-81.408-173.568-173.568h86.528c8.704 0 15.36-6.656 15.36-15.36s-6.656-15.36-15.36-15.36h-86.528c7.68-92.16 81.408-165.888 173.568-173.568v86.528c0 8.704 6.656 15.36 15.36 15.36s15.36-6.656 15.36-15.36v-86.528c92.16 7.68 165.888 81.408 173.568 173.568h-86.528c-8.704 0-15.36 6.656-15.36 15.36s6.656 15.36 15.36 15.36h86.528c-7.68 92.16-81.408 165.888-173.568 173.568v-86.528c0-8.704-6.656-15.36-15.36-15.36s-15.36 7.168-15.36 15.36zM205.312 481.792h71.68c7.68 109.568 95.232 196.608 204.288 204.288v71.68c-148.48-7.168-268.288-126.976-275.968-275.968zM205.312 451.072c7.68-148.48 127.488-268.288 275.968-275.968v71.68c-109.056 7.68-196.608 95.232-204.288 204.288h-71.68z" />
<glyph unicode="&#x110;" glyph-name="arrow_down-plain" d="M829.952 590.848l-289.28-289.28c-7.68-7.68-17.92-11.776-29.184-11.776s-20.992 4.096-29.184 11.776l-288.256 289.28c-6.144 6.144-6.144 15.872 0 21.504 6.144 6.144 15.872 6.144 21.504 0l289.28-289.28c4.096-4.096 10.24-4.096 14.336 0l289.28 289.28c6.144 6.144 15.872 6.144 21.504 0 6.144-5.632 6.144-15.872 0-21.504z" />
<glyph unicode="&#x111;" glyph-name="arrow_down" d="M512 770.56c-177.664 0-322.56-144.896-322.56-322.56s144.896-322.56 322.56-322.56c177.664 0 322.56 144.896 322.56 322.56s-144.896 322.56-322.56 322.56zM512 156.16c-160.768 0-291.84 131.072-291.84 291.84s131.072 291.84 291.84 291.84 291.84-131.072 291.84-291.84-131.072-291.84-291.84-291.84zM650.752 509.952c6.144-6.144 6.144-15.872 0-21.504l-110.080-110.080c-8.192-8.192-18.432-11.776-29.184-11.776s-20.992 4.096-29.184 11.776l-109.056 110.080c-6.144 6.144-6.144 15.872 0 21.504 6.144 6.144 15.872 6.144 21.504 0l110.080-110.080c4.096-4.096 10.24-4.096 14.336 0l110.080 110.080c6.144 6.144 15.36 6.144 21.504 0z" />
<glyph unicode="&#x112;" glyph-name="arrow_left-plain" d="M387.584 440.832c-4.096 4.096-4.096 10.24 0 14.336l289.28 289.28c6.144 6.144 6.144 15.872 0 21.504-6.144 6.144-15.872 6.144-21.504 0l-289.792-288.768c-15.872-15.872-15.872-41.984 0-57.856l289.28-289.28c3.072-3.072 7.168-4.608 10.752-4.608s7.68 1.536 10.752 4.608c6.144 6.144 6.144 15.872 0 21.504l-288.768 289.28z" />
<glyph unicode="&#x113;" glyph-name="arrow_left" d="M512 770.56c-177.664 0-322.56-144.896-322.56-322.56s144.896-322.56 322.56-322.56c177.664 0 322.56 144.896 322.56 322.56s-144.896 322.56-322.56 322.56zM512 156.16c-160.768 0-291.84 131.072-291.84 291.84s131.072 291.84 291.84 291.84 291.84-131.072 291.84-291.84-131.072-291.84-291.84-291.84zM573.952 330.752c6.144-6.144 6.144-15.872 0-21.504-3.072-3.072-7.168-4.608-10.752-4.608s-7.68 1.536-10.752 4.608l-110.080 110.080c-15.872 15.872-15.872 41.984 0 57.856l110.080 110.080c6.144 6.144 15.872 6.144 21.504 0 6.144-6.144 6.144-15.872 0-21.504l-109.568-110.592c-4.096-4.096-4.096-10.24 0-14.336l109.568-110.080z" />
<glyph unicode="&#x114;" glyph-name="arrow_right-plain" d="M658.432 418.816l-289.28-289.28c-3.072-3.072-7.168-4.608-10.752-4.608s-7.68 1.536-10.752 4.608c-6.144 6.144-6.144 15.872 0 21.504l289.28 289.28c4.096 4.096 4.096 10.24 0 14.336l-289.28 289.792c-6.144 6.144-6.144 15.872 0 21.504 6.144 6.144 15.872 6.144 21.504 0l289.28-289.28c15.872-15.872 15.872-41.472 0-57.856z" />
<glyph unicode="&#x115;" glyph-name="arrow_right" d="M512 770.56c-177.664 0-322.56-144.896-322.56-322.56s144.896-322.56 322.56-322.56c177.664 0 322.56 144.896 322.56 322.56s-144.896 322.56-322.56 322.56zM512 156.16c-160.768 0-291.84 131.072-291.84 291.84s131.072 291.84 291.84 291.84 291.84-131.072 291.84-291.84-131.072-291.84-291.84-291.84zM581.632 477.184c15.872-15.872 15.872-41.984 0-57.856l-110.080-110.080c-3.072-3.072-7.168-4.608-10.752-4.608s-7.68 1.536-10.752 4.608c-6.144 6.144-6.144 15.872 0 21.504l110.080 110.080c4.096 4.096 4.096 10.24 0 14.336l-110.080 110.080c-6.144 6.144-6.144 15.872 0 21.504 6.144 6.144 15.872 6.144 21.504 0l110.080-109.568z" />
<glyph unicode="&#x116;" glyph-name="arrow_up-plain" d="M829.952 283.648c-3.072-3.072-7.168-4.608-10.752-4.608s-7.68 1.536-10.752 4.608l-289.28 289.28c-4.096 4.096-10.752 4.096-14.336 0l-289.28-289.28c-6.144-6.144-15.872-6.144-21.504 0-6.144 6.144-6.144 15.872 0 21.504l289.28 289.28c7.68 7.68 17.92 11.776 29.184 11.776s20.992-4.096 29.184-11.776l289.28-289.28c5.12-5.632 5.12-15.872-1.024-21.504z" />
<glyph unicode="&#x117;" glyph-name="arrow_up" d="M512 770.56c-177.664 0-322.56-144.896-322.56-322.56s144.896-322.56 322.56-322.56c177.664 0 322.56 144.896 322.56 322.56s-144.896 322.56-322.56 322.56zM512 156.16c-160.768 0-291.84 131.072-291.84 291.84s131.072 291.84 291.84 291.84 291.84-131.072 291.84-291.84-131.072-291.84-291.84-291.84zM650.752 407.552c6.144-6.144 6.144-15.872 0-21.504-3.072-3.072-7.168-4.608-10.752-4.608s-7.68 1.536-10.752 4.608l-110.080 110.080c-4.096 4.096-10.24 4.096-14.336 0l-110.080-110.080c-6.144-6.144-15.872-6.144-21.504 0-6.144 6.144-6.144 15.872 0 21.504l110.080 110.080c15.872 15.872 41.984 15.872 57.856 0l109.568-110.080z" />
<glyph unicode="&#x118;" glyph-name="checkbox_background" d="M772.096 785.92h-520.192c-43.008 0-77.824-34.816-77.824-77.824v-519.68c0-43.008 34.816-77.824 77.824-77.824h519.68c43.008 0 77.824 34.816 77.824 77.824v519.68c0.512 43.008-34.304 77.824-77.312 77.824zM823.808 187.904c0-28.672-23.552-52.224-52.224-52.224h-519.68c-28.672 0-52.224 23.552-52.224 52.224v520.192c0 28.672 23.552 52.224 52.224 52.224h519.68c28.672 0 52.224-23.552 52.224-52.224v-520.192z" />
<glyph unicode="&#x119;" glyph-name="checkbox_checkmark" d="M830.065 637.875c-6.001 6.001-15.718 6.001-21.719 0l-350.541-350.536c-3.988-3.988-10.496-3.999-14.484 0l-227.656 227.656c-6.001 6.001-15.718 6.001-21.719 0-6.001-5.996-6.001-15.724 0-21.719l227.656-227.661c7.987-7.982 18.473-11.976 28.959-11.976 10.491 0 20.982 3.994 28.964 11.976l350.541 350.536c6.001 6.006 6.001 15.729 0 21.724z" />
<glyph unicode="&#x11a;" glyph-name="color_blue" d="M793.6 658.053h-563.2c-22.584 0-40.96-18.376-40.96-40.96v-338.191c0-22.584 18.376-40.96 40.96-40.96h563.2c22.584 0 40.96 18.376 40.96 40.96v338.191c0 22.589-18.376 40.96-40.96 40.96zM803.84 278.907c0-5.55-4.69-10.24-10.24-10.24h-563.2c-5.55 0-10.24 4.69-10.24 10.24v338.186c0 5.55 4.69 10.24 10.24 10.24h563.2c5.55 0 10.24-4.69 10.24-10.24v-338.186z" />
<glyph unicode="&#x11b;" glyph-name="color_green" d="M793.6 658.053h-563.2c-22.584 0-40.96-18.376-40.96-40.96v-338.191c0-22.584 18.376-40.96 40.96-40.96h563.2c22.584 0 40.96 18.376 40.96 40.96v338.191c0 22.589-18.376 40.96-40.96 40.96zM803.84 278.907c0-5.55-4.69-10.24-10.24-10.24h-563.2c-5.55 0-10.24 4.69-10.24 10.24v338.186c0 5.55 4.69 10.24 10.24 10.24h563.2c5.55 0 10.24-4.69 10.24-10.24v-338.186z" />
<glyph unicode="&#x11c;" glyph-name="color_red" d="M793.6 657.92h-563.2c-22.528 0-40.96-18.432-40.96-40.96v-337.92c0-22.528 18.432-40.96 40.96-40.96h563.2c22.528 0 40.96 18.432 40.96 40.96v337.92c0 22.528-18.432 40.96-40.96 40.96zM803.84 279.040c0-5.632-4.608-10.24-10.24-10.24h-563.2c-5.632 0-10.24 4.608-10.24 10.24v337.92c0 5.632 4.608 10.24 10.24 10.24h563.2c5.632 0 10.24-4.608 10.24-10.24v-337.92z" />
<glyph unicode="&#x11d;" glyph-name="color_yellow" d="M793.6 657.92h-563.2c-22.528 0-40.96-18.432-40.96-40.96v-337.92c0-22.528 18.432-40.96 40.96-40.96h563.2c22.528 0 40.96 18.432 40.96 40.96v337.92c0 22.528-18.432 40.96-40.96 40.96zM803.84 279.040c0-5.632-4.608-10.24-10.24-10.24h-563.2c-5.632 0-10.24 4.608-10.24 10.24v337.92c0 5.632 4.608 10.24 10.24 10.24h563.2c5.632 0 10.24-4.608 10.24-10.24v-337.92z" />
<glyph unicode="&#x11e;" glyph-name="comfort_climate" d="M793.6 770.56h-563.2c-22.528 0-40.96-18.432-40.96-40.96v-563.2c0-22.528 18.432-40.96 40.96-40.96h563.2c22.528 0 40.96 18.432 40.96 40.96v563.2c0 22.528-18.432 40.96-40.96 40.96zM803.84 166.4c0-5.632-4.608-10.24-10.24-10.24h-563.2c-5.632 0-10.24 4.608-10.24 10.24v563.2c0 5.632 4.608 10.24 10.24 10.24h563.2c5.632 0 10.24-4.608 10.24-10.24v-563.2zM355.328 574.976c-30.208 0-54.784-23.552-54.272-55.296 0-28.672 21.504-52.736 53.76-52.736 28.16 0 54.784 21.504 54.784 54.784 0 27.648-20.48 53.248-54.272 53.248zM354.816 485.888c-17.92 0-31.744 14.848-31.744 33.792 0 17.408 10.752 35.84 31.744 35.84 23.552 0 32.256-19.456 32.256-34.304 0-19.968-13.824-35.328-32.256-35.328zM471.552 431.104c0-67.584 38.912-111.104 105.984-111.104 21.504 0 44.032 4.608 58.368 11.264l7.168-28.16c-13.312-6.656-39.424-13.312-72.704-13.312-77.824 0-136.192 49.152-136.192 139.776 0 86.528 58.368 144.896 144.384 144.896 34.304 0 56.32-7.168 65.536-12.288l-8.704-29.184c-13.312 6.656-32.768 11.264-55.808 11.264-65.024 1.024-108.032-40.448-108.032-113.152z" />
<glyph unicode="&#x11f;" glyph-name="comfort_curtain_light" d="M189.44 550.4c0 8.704 6.656 15.36 15.36 15.36h56.832l31.232-30.72h-88.064c-8.704 0-15.36 6.656-15.36 15.36zM230.4 638.976c-17.408 16.896-26.624 39.936-25.6 64s11.776 46.080 30.72 61.952c34.816 29.696 86.528 27.136 119.808-5.632l9.216-9.216 9.216 9.216c33.28 32.768 84.992 34.816 119.808 5.632 18.944-15.872 29.696-37.888 30.72-61.952s-8.704-47.104-25.6-64l-114.688-112.128c-5.12-5.12-12.288-7.68-18.944-7.68s-13.824 2.56-18.944 7.68l-115.712 112.128zM235.52 701.952c-0.512-15.36 5.12-29.696 16.384-40.96l112.64-110.080 112.64 110.080c11.264 10.752 16.896 25.6 16.384 40.96s-7.68 29.696-19.456 39.936c-22.528 18.944-56.832 17.408-78.848-4.096l-11.264-11.264c-10.752-10.24-27.648-10.24-38.4 0l-11.776 11.264c-11.264 11.264-26.624 16.896-41.984 16.896-13.312 0-26.112-4.096-36.864-13.312-11.776-9.728-18.944-24.064-19.456-39.424zM819.2 637.44c8.704 0 15.36 6.656 15.36 15.36s-6.656 15.36-15.36 15.36h-87.040v71.68h87.040c8.704 0 15.36 6.656 15.36 15.36s-6.656 15.36-15.36 15.36h-287.744c7.168-9.216 12.8-19.456 16.896-30.72h153.088v-71.68h-150.528c-3.072-10.752-7.68-20.992-13.824-30.72h164.352v-71.68h-233.472l-31.232-30.72h264.704v-71.68h-496.64c-8.704 0-15.36-6.656-15.36-15.36s6.656-15.36 15.36-15.36h496.64v-134.656l-12.288-25.088c-5.12-9.728-4.608-20.992 1.536-30.208 5.632-9.216 15.872-14.848 26.624-14.848s20.992 5.632 26.624 14.848c5.632 9.216 6.144 20.48 1.536 30.208l-12.288 25.088v134.656h87.040c8.704 0 15.36 6.656 15.36 15.36s-6.656 15.36-15.36 15.36h-87.040v71.68h87.040c8.704 0 15.36 6.656 15.36 15.36s-6.656 15.36-15.36 15.36h-87.040v71.68h86.016zM819.2 360.96c-8.704 0-15.36-6.656-15.36-15.36v-188.928c0-0.512 0-0.512-0.512-0.512h-582.656c0 0-0.512 0-0.512 0.512v188.928c0 8.704-6.656 15.36-15.36 15.36s-15.36-6.656-15.36-15.36v-188.928c0-17.408 13.824-31.232 31.232-31.232h582.656c17.408 0 31.232 13.824 31.232 31.232v188.928c0 8.704-6.656 15.36-15.36 15.36z" />
<glyph unicode="&#x120;" glyph-name="comfort_curtain" d="M732.16 637.44v-71.68h87.040c8.704 0 15.36-6.656 15.36-15.36s-6.656-15.36-15.36-15.36h-87.040v-71.68h87.040c8.704 0 15.36-6.656 15.36-15.36s-6.656-15.36-15.36-15.36h-87.040v-134.656l12.288-25.088c5.12-9.728 4.608-20.992-1.536-30.208-5.632-9.216-15.872-14.848-26.624-14.848s-20.992 5.632-26.624 14.848c-5.632 9.216-6.144 20.48-1.536 30.208l12.288 25.088v134.656h-495.616c-8.704 0-15.36 6.656-15.36 15.36s6.656 15.36 15.36 15.36h496.64v71.68h-496.64c-8.704 0-15.36 6.656-15.36 15.36s6.656 15.36 15.36 15.36h496.64v71.68h-496.64c-8.704 0-15.36 6.656-15.36 15.36s6.656 15.36 15.36 15.36h496.64v71.68h-496.64c-8.704 0-15.36 6.656-15.36 15.36s6.656 15.36 15.36 15.36h614.4c8.704 0 15.36-6.656 15.36-15.36s-6.656-15.36-15.36-15.36h-87.040v-71.68h87.040c8.704 0 15.36-6.656 15.36-15.36s-6.656-15.36-15.36-15.36h-87.040zM819.2 360.96c-8.704 0-15.36-6.656-15.36-15.36v-188.928c0-0.512 0-0.512-0.512-0.512h-582.656c-0.512 0-0.512 0-0.512 0.512v188.928c0 8.704-6.656 15.36-15.36 15.36s-15.36-6.656-15.36-15.36v-188.928c0-17.408 13.824-31.232 31.232-31.232h582.656c17.408 0 31.232 13.824 31.232 31.232v188.928c0 8.704-6.656 15.36-15.36 15.36z" />
<glyph unicode="&#x121;" glyph-name="comfort_food" d="M819.2 463.36h-614.4c-8.704 0-15.36-6.656-15.36-15.36 0-177.664 144.896-322.56 322.56-322.56s322.56 144.896 322.56 322.56c0 8.704-6.656 15.36-15.36 15.36zM512 156.16c-155.648 0-283.648 122.88-291.328 276.48h582.656c-7.68-153.6-135.68-276.48-291.328-276.48zM498.176 543.232c-15.36 29.184-18.944 71.168-9.216 100.352 2.56 7.168 5.632 13.824 8.704 19.968 2.56 6.144 5.632 11.264 7.68 16.896 7.168 20.48 4.608 45.056-7.168 67.072-4.096 7.68-1.024 16.896 6.656 20.48 7.68 4.096 16.896 1.024 20.48-6.656 15.872-30.208 18.944-62.976 9.216-91.648-2.56-7.168-5.632-13.824-8.704-19.968-2.56-6.144-5.632-11.264-7.68-16.896-7.168-20.992-4.096-53.76 7.168-75.776 4.096-7.68 1.024-16.896-6.656-20.48-2.048-1.024-4.608-1.536-7.168-1.536-5.12 0-10.24 3.072-13.312 8.192zM395.776 543.232c-15.36 29.184-18.944 71.168-9.216 100.352 2.56 7.168 5.632 13.824 8.704 19.968 2.56 6.144 5.632 11.264 7.68 16.896 7.168 20.48 4.608 45.056-7.168 67.072-4.096 7.68-1.024 16.896 6.656 20.48 7.68 4.096 16.896 1.024 20.48-6.656 15.872-30.208 18.944-62.976 9.216-91.648-2.56-7.168-5.632-13.824-8.704-19.968-2.56-6.144-5.632-11.264-7.68-16.896-7.168-20.992-4.096-53.76 7.168-75.776 4.096-7.68 1.024-16.896-6.656-20.48-2.048-1.024-4.096-1.536-6.656-1.536-5.632 0-10.752 3.072-13.824 8.192zM600.576 543.232c-15.36 29.184-18.944 71.168-9.216 100.352 2.56 7.168 5.632 13.824 8.704 19.968 2.56 6.144 5.632 11.264 7.68 16.896 7.168 20.48 4.608 45.056-7.168 67.072-4.096 7.68-1.024 16.896 6.656 20.48 7.68 4.096 16.896 1.024 20.48-6.656 15.872-30.208 18.944-62.976 9.216-91.648-2.56-7.168-5.632-13.824-8.704-19.968-2.56-6.144-5.632-11.264-7.68-16.896-7.168-20.992-4.096-53.76 7.168-75.776 4.096-7.68 1.024-16.896-6.656-20.48-2.048-1.024-4.608-1.536-7.168-1.536-5.12 0-10.24 3.072-13.312 8.192z" />
<glyph unicode="&#x122;" glyph-name="comfort_housekeeping" d="M730.624 150.016l-42.496 248.32c-1.024 7.168-7.68 12.8-15.36 12.8h-318.976c-7.168 0-13.824-5.12-15.36-12.8l-45.568-248.32c-1.024-4.608 0.512-9.216 3.072-12.8 3.072-3.584 7.168-5.632 11.776-5.632h407.040c4.608 0 8.704 2.048 11.776 5.632 3.584 3.584 5.12 8.192 4.096 12.8zM360.96 162.816h-34.304l34.304 186.368v-186.368zM428.544 162.816h-37.376v217.6h37.376v-217.6zM496.64 162.816h-37.376v217.6h37.376v-217.6zM564.736 162.816h-37.376v217.6h37.376v-217.6zM632.32 162.816h-37.376v217.6h37.376v-217.6zM663.040 162.816v201.216l34.304-201.216h-34.304zM358.4 424.448c0.512 0 1.536 0 2.048 0 13.312 1.024 189.44 0.512 305.152 0 4.096 0 8.192 1.536 10.752 4.608 3.072 3.072 4.608 6.656 4.608 10.752v52.224c0 65.024-52.736 117.76-117.76 117.76h-102.4c-65.024 0-117.76-52.736-117.76-117.76v-51.712c0-4.608 2.048-8.704 5.632-11.776 2.56-2.56 6.144-4.096 9.728-4.096zM373.76 492.032c0 48.128 38.912 87.040 87.040 87.040h102.4c48.128 0 87.040-38.912 87.040-87.040v-36.352c-60.416 0.512-137.728 0.512-198.144 0.512-33.28 0-60.928 0-78.336-0.512v36.352zM496.64 644.608v96.256c0 8.704 6.656 15.36 15.36 15.36s15.36-6.656 15.36-15.36v-95.744c0-8.704-6.656-15.36-15.36-15.36s-15.36 6.656-15.36 14.848z" />
<glyph unicode="&#x123;" glyph-name="comfort_light_decrease" d="M655.872 712.704c-40.96 39.424-94.72 59.904-152.064 57.856-108.032-4.096-195.072-92.16-199.168-199.68-1.536-45.056 11.264-88.576 36.864-125.44 27.136-39.936 52.736-82.432 52.736-124.928v-154.112c0-22.528 18.432-40.96 40.96-40.96h153.6c22.528 0 40.96 18.432 40.96 40.96v154.112c0 45.568 29.184 91.648 51.2 122.368 25.088 35.328 38.4 76.8 38.4 120.832 0 56.32-22.528 109.568-63.488 148.992zM599.040 166.4c0-5.632-4.608-10.24-10.24-10.24h-153.6c-5.632 0-10.24 4.608-10.24 10.24v61.44h174.080v-61.44zM655.872 460.288c-24.576-33.792-56.832-85.504-56.832-140.288v-61.44h-174.080v61.952c0 51.2-28.16 98.816-58.368 142.336-21.504 31.232-32.768 68.096-31.232 107.008 3.584 91.648 77.824 166.4 169.472 169.984 48.64 2.048 94.72-15.36 129.536-49.152s54.272-78.848 54.272-127.488c0-37.376-11.264-72.704-32.768-102.912zM588.8 540.16h-153.6c-8.704 0-15.36-6.656-15.36-15.36s6.656-15.36 15.36-15.36h153.6c8.704 0 15.36 6.656 15.36 15.36s-6.656 15.36-15.36 15.36z" />
<glyph unicode="&#x124;" glyph-name="comfort_light_increase" d="M655.872 712.704c-40.96 39.424-94.72 59.904-152.064 57.856-108.032-4.096-195.072-92.16-199.168-199.68-1.536-45.056 11.264-88.576 36.864-125.44 27.136-39.936 52.736-82.432 52.736-124.928v-154.112c0-22.528 18.432-40.96 40.96-40.96h153.6c22.528 0 40.96 18.432 40.96 40.96v154.112c0 45.568 29.184 91.648 51.2 122.368 25.088 35.328 38.4 76.8 38.4 120.832 0 56.32-22.528 109.568-63.488 148.992zM599.040 166.4c0-5.632-4.608-10.24-10.24-10.24h-153.6c-5.632 0-10.24 4.608-10.24 10.24v61.44h174.080v-61.44zM655.872 460.288c-24.576-33.792-56.832-85.504-56.832-140.288v-61.44h-174.080v61.952c0 51.2-28.16 98.816-58.368 142.336-21.504 31.232-32.768 68.096-31.232 107.008 3.584 91.648 77.824 166.4 169.472 169.984 48.64 2.048 94.72-15.36 129.536-49.152s54.272-78.848 54.272-127.488c0-37.376-11.264-72.704-32.768-102.912zM604.16 524.8c0-8.704-6.656-15.36-15.36-15.36h-61.44v-61.44c0-8.704-6.656-15.36-15.36-15.36s-15.36 6.656-15.36 15.36v61.44h-61.44c-8.704 0-15.36 6.656-15.36 15.36s6.656 15.36 15.36 15.36h61.44v61.44c0 8.704 6.656 15.36 15.36 15.36s15.36-6.656 15.36-15.36v-61.44h61.44c8.704 0 15.36-6.656 15.36-15.36z" />
<glyph unicode="&#x125;" glyph-name="comfort_light_off" d="M678.4 443.904c25.088 34.816 38.4 76.288 38.4 119.296 0 56.32-22.528 108.544-62.976 147.456s-93.696 59.392-150.016 56.832c-106.496-3.584-192.512-90.624-196.608-197.12-1.536-44.544 10.752-87.552 36.352-123.904 27.648-39.936 53.248-82.944 53.248-126.464v-68.608c-1.536-2.56-2.56-5.12-2.56-8.704v-76.8c0-22.528 18.432-40.96 40.96-40.96h153.6c22.528 0 40.96 18.432 40.96 40.96v76.8c0 3.072-1.024 6.144-2.56 8.704v68.608c0 47.104 29.184 93.184 51.2 123.904zM599.040 166.4c0-5.632-4.608-10.24-10.24-10.24h-153.6c-5.632 0-10.24 4.608-10.24 10.24v61.44h174.080v-61.44z" />
<glyph unicode="&#x126;" glyph-name="comfort_light_on" d="M503.808 770.56c-108.032-4.096-195.072-92.16-199.168-199.68-1.536-45.056 11.264-88.576 36.864-125.44 27.136-39.936 52.736-82.432 52.736-124.928v-154.112c0-22.528 18.432-40.96 40.96-40.96h153.6c22.528 0 40.96 18.432 40.96 40.96v154.112c0 45.568 29.184 91.648 51.2 122.368 25.088 35.328 38.4 76.8 38.4 120.832 0 56.832-22.528 110.080-63.488 149.504-40.96 38.912-95.232 59.392-152.064 57.344zM599.040 166.4c0-5.632-4.608-10.24-10.24-10.24h-153.6c-5.632 0-10.24 4.608-10.24 10.24v61.44h174.080v-61.44zM655.872 460.288c-24.576-33.792-56.832-85.504-56.832-140.288v-61.44h-174.080v61.952c0 51.2-28.16 98.816-58.368 142.336-21.504 31.232-32.768 68.096-31.232 107.008 3.584 91.648 77.824 166.4 169.472 169.984 48.64 2.048 94.72-15.36 129.536-49.152s54.272-78.848 54.272-127.488c0-37.376-11.264-72.704-32.768-102.912zM496.64 806.4v51.2c0 8.704 6.656 15.36 15.36 15.36s15.36-6.656 15.36-15.36v-51.2c0-8.704-6.656-15.36-15.36-15.36s-15.36 6.656-15.36 15.36zM834.56 550.4c0-8.704-6.656-15.36-15.36-15.36h-51.2c-8.704 0-15.36 6.656-15.36 15.36s6.656 15.36 15.36 15.36h51.2c8.704 0 15.36-6.656 15.36-15.36zM739.84 778.24c6.144-6.144 6.144-15.872 0-21.504l-37.888-37.888c-3.072-3.072-7.168-4.608-10.752-4.608s-7.68 1.536-10.752 4.608c-6.144 6.144-6.144 15.872 0 21.504l37.888 37.888c6.144 6.144 15.872 6.144 21.504 0zM271.36 550.4c0-8.704-6.656-15.36-15.36-15.36h-51.2c-8.704 0-15.36 6.656-15.36 15.36s6.656 15.36 15.36 15.36h51.2c8.704 0 15.36-6.656 15.36-15.36zM322.048 718.848l-37.888 37.888c-6.144 6.144-6.144 15.872 0 21.504 6.144 6.144 15.872 6.144 21.504 0l37.888-37.888c6.144-6.144 6.144-15.872 0-21.504-3.072-3.072-6.656-4.608-10.752-4.608s-7.68 1.536-10.752 4.608z" />
<glyph unicode="&#x127;" glyph-name="comfort_light_underwater" d="M819.2 730.624c-27.648 0-53.248 10.24-74.752 29.184-15.872 13.824-39.424 13.824-54.784 0-21.504-19.456-47.616-29.184-74.752-29.184s-53.248 10.24-74.752 29.184c-7.68 6.656-17.408 10.24-26.624 10.24 0 0-0.512 0-0.512 0s-0.512 0-0.512 0c-9.728 0-19.456-3.584-27.136-10.24-21.504-19.456-47.616-29.184-74.752-29.184-27.648 0-53.248 10.24-74.752 29.184-15.872 13.824-39.424 13.824-54.784 0-21.504-19.456-47.616-29.184-74.752-29.184-8.704 0-15.36-6.656-15.36-15.36s6.656-15.36 15.36-15.36c34.816 0 68.608 13.312 95.232 37.376 4.096 3.584 10.24 3.584 14.336 0 27.136-24.064 60.928-37.376 95.232-37.376 31.232 0 61.44 10.752 87.040 30.208v-113.152h-35.84c-22.528 0-40.96-18.432-40.96-40.96v-109.056c0-33.28-21.504-67.072-37.376-89.6-19.456-27.136-29.696-59.392-29.696-92.672 0-43.52 17.408-84.48 49.152-114.688 30.208-28.672 69.12-44.544 110.592-44.544 2.048 0 4.096 0 6.144 0 82.944 3.072 150.016 70.656 153.088 153.6 1.024 34.816-8.704 68.096-28.16 96.256-20.48 29.184-38.912 60.416-38.912 91.648v109.056c0 22.528-18.432 40.96-40.96 40.96h-35.84v113.152c25.6-19.456 55.808-30.208 87.040-30.208 34.816 0 68.608 13.312 95.232 37.376 4.096 3.584 10.24 3.584 14.336 0 27.136-24.064 60.928-37.376 95.232-37.376 8.704 0 15.36 6.656 15.36 15.36-2.048 8.704-8.704 15.36-17.408 15.36zM617.984 357.888c15.872-23.040 23.552-49.664 22.528-77.824-2.56-67.072-56.832-121.344-123.392-123.904-35.328-1.536-69.12 11.264-94.208 35.84-25.6 24.576-39.424 57.344-39.424 92.672 0 27.136 8.192 52.736 24.064 74.752 18.432 26.112 43.008 65.024 43.008 107.52v42.496h122.88v-42.496c0-39.424 21.504-75.776 44.544-109.056zM563.2 586.24c5.632 0 10.24-4.608 10.24-10.24v-35.84h-122.88v35.84c0 5.632 4.608 10.24 10.24 10.24h102.4z" />
<glyph unicode="&#x128;" glyph-name="comfort_light" d="M503.808 770.56c-108.032-4.096-195.072-92.16-199.168-199.68-1.536-45.056 11.264-88.576 36.864-125.44 27.136-39.936 52.736-82.432 52.736-124.928v-154.112c0-22.528 18.432-40.96 40.96-40.96h153.6c22.528 0 40.96 18.432 40.96 40.96v154.112c0 45.568 29.184 91.648 51.2 122.368 25.088 35.328 38.4 76.8 38.4 120.832 0 116.736-97.28 211.456-215.552 206.848zM599.040 166.4c0-5.632-4.608-10.24-10.24-10.24h-153.6c-5.632 0-10.24 4.608-10.24 10.24v61.44h174.080v-61.44zM655.872 460.288c-24.576-33.792-56.832-85.504-56.832-140.288v-61.44h-174.080v61.952c0 51.2-28.16 98.816-58.368 142.336-21.504 31.232-32.768 68.096-31.232 107.008 3.584 91.648 77.824 166.4 169.472 169.984 100.352 4.096 183.808-76.8 183.808-176.64 0-36.864-11.264-72.704-32.768-102.912z" />
<glyph unicode="&#x129;" glyph-name="comfort_party" d="M831.488 354.816c-3.072 4.096-7.68 6.144-12.288 6.144h-99.328c22.528 48.64 37.376 100.352 43.52 153.6l5.632 47.104c6.144 50.176 21.504 98.304 45.568 142.848l11.264 20.992c4.608 8.192 5.632 17.92 3.072 27.136s-8.704 16.896-17.408 21.504c-8.192 4.608-17.92 5.632-27.136 3.072s-16.896-8.704-21.504-17.408l-11.264-20.992c-24.064-44.544-56.32-83.456-95.232-115.712l-36.352-30.208c-50.176-41.472-91.648-91.648-122.88-148.992l-45.568-82.944h-246.784c-5.12 0-9.728-2.56-12.288-6.144-3.072-4.096-3.584-9.216-2.048-13.824l102.4-307.2c2.048-6.144 8.192-10.752 14.336-10.752h409.6c6.656 0 12.288 4.096 14.336 10.752l102.4 307.2c2.048 4.608 1.024 9.728-2.048 13.824zM523.776 429.568c29.184 53.76 68.096 100.864 115.2 139.776l36.352 30.208c41.984 34.816 76.8 76.8 102.912 124.928l11.264 20.992c1.024 1.536 2.56 2.048 3.072 2.56 1.024 0 2.56 0.512 4.096-0.512s2.048-2.56 2.56-3.072c0-1.024 0.512-2.56-0.512-4.096l-11.264-20.992c-26.112-48.128-42.496-99.84-49.152-154.112l-5.632-47.104c-6.656-54.784-22.528-107.52-47.104-157.184h-198.656l36.864 68.608zM705.536 53.76h-387.072l-92.16 276.48h571.904l-92.672-276.48zM343.040 678.4v76.8c0 8.704 6.656 15.36 15.36 15.36s15.36-6.656 15.36-15.36v-76.8c0-8.704-6.656-15.36-15.36-15.36s-15.36 6.656-15.36 15.36zM343.040 448v76.8c0 8.704 6.656 15.36 15.36 15.36s15.36-6.656 15.36-15.36v-76.8c0-8.704-6.656-15.36-15.36-15.36s-15.36 6.656-15.36 15.36zM419.84 601.6c0 8.704 6.656 15.36 15.36 15.36h76.8c8.704 0 15.36-6.656 15.36-15.36s-6.656-15.36-15.36-15.36h-76.8c-8.704 0-15.36 6.656-15.36 15.36zM189.44 601.6c0 8.704 6.656 15.36 15.36 15.36h76.8c8.704 0 15.36-6.656 15.36-15.36s-6.656-15.36-15.36-15.36h-76.8c-8.704 0-15.36 6.656-15.36 15.36zM424.448 667.648c-3.072 2.56-4.608 6.656-4.608 10.752s1.536 8.192 4.608 10.752c5.632 5.632 15.872 5.632 21.504 0 3.072-3.072 4.608-6.656 4.608-10.752s-1.536-8.192-4.608-10.752-6.656-4.608-10.752-4.608-8.192 1.536-10.752 4.608zM292.352 535.552c3.072-3.072 4.608-6.656 4.608-10.752s-1.536-8.192-4.608-10.752-6.656-4.608-10.752-4.608-8.192 1.536-10.752 4.608-4.608 6.656-4.608 10.752c0 4.096 1.536 8.192 4.608 10.752 5.632 5.632 15.872 5.632 21.504 0zM424.448 514.048c-3.072 2.56-4.608 6.656-4.608 10.752s1.536 8.192 4.608 10.752c5.632 5.632 15.872 5.632 21.504 0 3.072-3.072 4.608-6.656 4.608-10.752s-1.536-8.192-4.608-10.752-6.656-4.608-10.752-4.608-8.192 1.536-10.752 4.608zM270.848 667.648c-3.072 2.56-4.608 6.656-4.608 10.752s1.536 8.192 4.608 10.752c5.632 5.632 15.872 5.632 21.504 0 3.072-3.072 4.608-6.656 4.608-10.752s-1.536-8.192-4.608-10.752-6.656-4.608-10.752-4.608-8.192 1.536-10.752 4.608z" />
<glyph unicode="&#x12a;" glyph-name="comfort_preset_light" d="M712.192 712.704c-40.96 39.424-95.232 59.904-152.064 57.856-6.144 0-11.776-0.512-17.92-1.536 5.12-3.072 10.24-6.656 15.36-10.752 6.656-5.632 12.288-11.776 17.408-18.432 43.52-1.536 83.968-18.944 115.712-49.152 34.816-33.792 54.272-78.848 54.272-127.488 0-36.864-11.264-72.704-32.768-102.912-24.576-33.792-56.832-85.504-56.832-140.288v-61.44h-174.080v61.952c0 50.176-26.624 96.768-56.32 139.776-5.12-1.536-10.752-2.56-16.384-2.56-7.168 0-14.336 1.536-20.48 4.096 3.072-5.632 6.656-10.752 10.24-15.872 26.624-40.448 52.224-82.944 52.224-125.44v-154.112c0-22.528 18.432-40.96 40.96-40.96h153.6c22.528 0 40.96 18.432 40.96 40.96v154.112c0 45.568 29.184 91.648 51.2 122.368 25.088 35.328 38.4 76.8 38.4 120.832 0 56.32-22.528 109.568-63.488 148.992zM655.36 166.4c0-5.632-4.608-10.24-10.24-10.24h-153.6c-5.632 0-10.24 4.608-10.24 10.24v61.44h174.080v-61.44zM393.216 492.544c4.608-3.072 9.728-4.608 14.848-4.608 6.656 0 13.824 2.56 18.944 7.68l115.712 112.64c17.408 16.896 26.624 39.936 25.6 64s-11.776 46.080-30.72 61.952c-1.024 0.512-2.048 1.536-2.56 2.048 0 0 0 0 0 0s0 0-0.512 0c-4.608 3.584-9.728 6.656-15.36 9.216-0.512 0-0.512 0.512-1.024 0.512-1.536 0.512-3.072 1.536-4.608 2.048-0.512 0.512-1.536 0.512-2.048 0.512-1.536 0.512-3.072 1.024-4.608 1.536-1.024 0.512-1.536 0.512-2.56 0.512-2.048 0.512-4.608 1.024-6.656 1.536-1.024 0-2.56 0.512-3.584 0.512s-2.56 0.512-3.584 0.512c-0.512 0-1.024 0-1.536 0 0 0 0 0 0 0-25.6 2.56-51.712-6.144-71.68-25.6l-9.216-9.216-9.216 9.216c-33.28 32.768-84.992 34.816-119.808 5.632-18.944-15.872-29.696-37.888-30.72-61.952s8.704-47.104 25.6-64l91.648-89.088 23.552-23.040c1.536-0.512 3.072-1.536 4.096-2.56zM364.544 563.2l-3.072 3.072-66.048 64c-11.264 10.752-16.896 25.6-16.384 40.96s7.68 29.696 19.456 39.936c10.24 8.704 23.552 13.312 36.864 13.312 15.36 0 30.208-5.632 41.984-16.896l11.776-11.264c4.096-4.096 8.704-6.144 13.824-7.168 1.024 0 2.048 0 3.072-0.512 0.512 0 1.536 0 2.048 0 1.024 0 1.536 0 2.56 0s1.536 0 2.56 0c1.536 0.512 2.56 0.512 4.096 1.024 0.512 0 0.512 0 1.024 0.512 2.56 1.024 4.608 2.56 6.656 4.096 0.512 0.512 1.536 1.024 2.048 1.536l11.776 11.264c0 0 0 0 0 0 1.536 1.536 3.072 2.56 4.096 3.584 0.512 0.512 1.024 0.512 1.536 1.024 1.024 0.512 2.048 1.536 3.072 2.048 0.512 0.512 1.536 1.024 2.048 1.024 1.024 0.512 2.048 1.024 3.072 1.536 0.512 0.512 1.536 0.512 2.048 1.024 1.024 0.512 2.048 1.024 3.072 1.536 0.512 0.512 1.536 0.512 2.048 1.024 1.024 0.512 2.048 0.512 3.072 1.024 1.024 0 1.536 0.512 2.56 0.512 1.024 0.512 2.048 0.512 3.072 0.512s1.536 0.512 2.56 0.512c1.024 0 2.048 0.512 3.072 0.512s1.536 0 2.56 0c1.024 0 2.048 0 3.072 0s1.536 0 2.56 0 2.56 0 4.096 0c0.512 0 1.024 0 1.024 0 2.048 0 3.584-0.512 5.632-1.024 0 0 0 0 0 0 8.704-2.048 17.408-5.632 24.576-11.776 12.288-10.24 18.944-24.576 19.456-39.936s-5.12-29.696-16.384-40.96l-112.64-110.080-43.52 44.032z" />
<glyph unicode="&#x12b;" glyph-name="comfort_preset_temperature" d="M570.368 608.256c17.408 16.896 26.624 39.936 25.6 64s-11.776 46.080-30.72 61.952c-34.816 29.696-86.528 27.136-119.808-5.632l-9.216-9.216-9.216 9.216c-33.28 33.28-84.992 35.328-119.808 6.144-18.944-15.872-29.696-37.888-30.72-61.952s8.704-47.104 25.6-64l115.2-112.128c5.12-5.12 12.288-7.68 18.944-7.68s13.824 2.56 18.944 7.68l115.2 111.616zM323.584 630.272c-11.264 10.752-16.896 25.6-16.384 40.96s7.68 29.696 19.456 39.936c10.24 8.704 23.552 13.312 36.864 13.312 15.36 0 30.208-5.632 41.984-16.896l11.776-11.264c10.752-10.24 27.648-10.24 38.4 0l11.776 11.264c21.504 20.992 56.32 23.040 78.848 4.096 12.288-10.24 18.944-24.576 19.456-39.936s-5.12-29.696-16.384-40.96l-112.64-110.080-113.152 109.568zM747.52 272.896c0-41.984-17.408-82.432-48.128-110.592-28.16-26.624-64.512-40.448-102.912-40.448-3.584 0-7.168 0-11.264 0.512-74.752 5.12-135.168 65.536-140.288 140.288-4.096 57.856 24.576 112.128 75.264 141.312 1.536 1.024 2.56 2.048 2.56 3.584v111.104l30.72 30.208v-140.8c0-12.288-6.656-24.064-17.408-30.208-39.936-23.040-62.976-66.56-59.904-112.64 4.096-59.392 52.224-107.52 111.616-112.128 33.792-2.56 66.048 9.216 91.136 32.256 24.576 23.040 38.4 54.272 38.4 88.064 0 43.008-23.040 82.944-60.416 104.448-10.752 6.144-17.408 17.92-17.408 30.208v290.816c0 23.040-17.408 42.496-38.912 44.544-4.608 5.12-9.216 10.24-14.848 14.848-5.12 4.096-10.24 7.68-15.872 11.264 9.728 3.584 19.456 5.632 30.208 5.12 39.424-2.048 70.144-34.816 70.144-75.264v-290.816c0-1.536 0.512-3.072 2.048-3.584 46.592-27.648 75.264-77.824 75.264-132.096zM611.84 550.4v0c0 8.704-6.656 15.36-15.36 15.36s-15.36-6.656-15.36-15.36v-204.8c0 0 0-0.512 0-0.512-33.28-7.168-58.368-36.864-58.368-72.192 0-40.448 33.28-73.728 73.728-73.728s73.728 33.28 73.728 73.728c0 35.328-25.088 65.024-58.368 72.192 0 0 0 0.512 0 0.512v204.8zM638.976 272.896c0-23.552-19.456-43.008-43.008-43.008s-43.008 19.456-43.008 43.008c0 23.552 19.456 43.008 43.008 43.008 24.064 0 43.008-18.944 43.008-43.008z" />
<glyph unicode="&#x12c;" glyph-name="comfort_preset" d="M790.016 242.176c30.208-30.208 37.888-70.656 17.92-90.624-7.168-7.168-17.408-10.752-29.184-10.752-19.456 0-42.496 10.24-61.44 29.184-7.168 7.168-12.8 14.336-17.408 22.016h-376.32c-4.608-7.68-10.24-15.36-17.408-22.016-18.944-18.944-41.984-29.184-61.44-29.184-11.264 0-21.504 3.584-29.184 10.752-19.968 19.968-11.776 60.416 17.92 90.624 7.168 7.168 14.336 12.8 22.016 17.408v298.496l30.72-30.208v-268.8c0-10.752-5.632-20.992-15.36-26.624-5.632-3.584-11.264-7.68-15.872-12.288-10.24-10.24-17.408-22.016-19.456-33.28-1.536-7.168-0.512-12.288 1.536-13.824 1.536-1.536 5.632-2.048 7.168-2.048 9.216 0 24.576 5.12 39.424 19.968 4.608 4.608 9.216 10.24 12.288 15.872 5.632 9.216 15.36 15.36 26.624 15.36h377.344c10.752 0 20.992-5.632 26.624-15.36 3.584-5.632 7.68-11.264 12.288-15.872 14.848-14.848 30.72-19.968 39.424-19.968 1.536 0 5.632 0 7.168 2.048 4.096 4.096 3.072 26.112-17.92 47.104-4.608 4.608-10.24 9.216-15.872 12.288-9.216 5.632-15.36 15.36-15.36 26.624v377.344c0 10.752 5.632 20.992 15.36 26.624 5.632 3.584 11.264 7.68 15.872 12.288 20.992 20.992 22.528 43.008 17.92 47.104-1.536 1.536-5.632 2.048-7.168 2.048-9.216 0-24.576-5.12-39.424-19.968-4.608-4.608-9.216-10.24-12.288-15.872-5.632-9.216-15.36-15.36-26.624-15.36h-161.792c2.56 10.24 3.584 20.48 3.072 30.72h158.72c4.608 7.68 10.24 15.36 17.408 22.016 18.944 18.944 41.984 29.184 61.44 29.184 11.264 0 21.504-3.584 29.184-10.752 19.968-19.968 11.776-60.416-17.92-90.624-7.168-7.168-14.336-12.8-22.016-17.408v-377.344c7.68-4.096 15.36-9.728 22.016-16.896zM217.088 638.976c-17.408 16.896-26.624 39.936-25.6 64s11.776 46.080 30.72 61.952c34.816 29.696 86.528 27.136 119.808-5.632l9.216-9.216 9.216 9.216c33.28 32.768 84.992 34.816 119.808 5.632 18.944-15.872 29.696-37.888 30.72-61.952s-8.704-47.104-25.6-64l-115.2-112.128c-5.12-5.12-12.288-7.68-18.944-7.68s-13.824 2.56-18.944 7.68l-115.2 112.128zM221.696 701.952c-0.512-15.36 5.12-29.696 16.384-40.96l112.64-110.080 112.64 110.080c11.264 10.752 16.896 25.6 16.384 40.96s-7.68 29.696-19.456 39.936c-22.528 18.944-56.832 17.408-78.848-4.096l-11.776-11.264c-10.752-10.24-27.648-10.24-38.4 0l-11.776 11.264c-11.776 11.264-27.136 16.896-41.984 16.896-13.312 0-26.112-4.096-36.864-13.312-11.264-9.728-17.92-24.064-18.944-39.424z" />
<glyph unicode="&#x12d;" glyph-name="comfort_rain" d="M723.456 619.008c0 0-0.512 0-0.512 0l-8.192-0.512-0.512 5.12c-11.264 98.304-94.72 172.544-194.048 172.544-78.336 0-148.992-46.080-180.224-117.248l-3.072-5.12h-10.24c-3.072 0-5.632-0.512-8.192-0.512-1.536 0-3.072-0.512-4.608-0.512h-3.072c-3.072 0-7.168 0-11.776-1.024v0c-1.024 0-2.048 0-3.584-0.512-41.472-9.728-76.8-36.352-97.28-73.728-1.024-1.536-1.536-3.072-1.536-5.12 0-0.512-0.512-1.024-0.512-1.536-0.512-1.536-1.536-3.072-2.56-5.12-1.024-1.536-1.536-3.584-2.048-5.12l-2.048-5.632c-1.024-2.048-2.048-4.096-2.56-7.168-3.584-13.824-5.632-27.648-5.632-40.96 0-80.896 65.536-146.432 146.432-146.432h395.776c65.536 0 118.784 53.76 118.784 119.808 0 65.536-53.248 118.784-118.784 118.784zM723.456 411.136h-395.264c-64 0-115.712 51.712-115.712 115.712 0 10.752 1.536 21.504 4.608 32.768 0.512 1.024 1.024 1.536 1.024 2.56l2.56 8.192c1.024 1.536 1.536 3.072 2.048 4.096 0.512 0.512 0.512 1.536 1.024 2.048 1.024 2.048 2.048 4.096 3.072 6.656 0 0.512 0 0.512 0.512 1.024 16.384 27.648 43.008 48.128 74.24 55.808h0.512c1.536 0 3.072 0.512 4.608 1.024 1.024 0.512 3.072 0.512 4.608 0.512h3.072c3.072 0 5.632 0.512 8.192 0.512 1.536 0 3.072 0.512 4.608 0.512h18.944c5.632 0 10.752 3.072 13.312 8.192l7.68 13.824c0 0.512 0.512 0.512 0.512 1.024 26.624 60.928 86.016 99.84 152.576 99.84 83.456 0 154.112-62.464 163.84-145.408l2.048-19.456c1.024-8.192 8.192-13.824 15.872-13.824l22.016 1.024c48.64 0 87.552-39.424 87.552-88.064s-39.424-88.576-88.064-88.576zM397.824 313.344l-51.2-102.4c-2.56-5.632-8.192-8.704-13.824-8.704-2.56 0-4.608 0.512-6.656 1.536-7.68 3.584-10.752 12.8-6.656 20.48l51.2 102.4c3.584 7.68 12.8 10.752 20.48 6.656 7.168-3.584 10.24-12.8 6.656-19.968zM500.224 313.344l-102.4-204.8c-2.56-5.632-8.192-8.704-13.824-8.704-2.56 0-4.608 0.512-6.656 1.536-7.68 3.584-10.752 12.8-6.656 20.48l102.4 204.8c3.584 7.68 12.8 10.752 20.48 6.656 7.168-3.584 10.24-12.8 6.656-19.968zM602.624 313.344l-51.2-102.4c-2.56-5.632-8.192-8.704-13.824-8.704-2.56 0-4.608 0.512-6.656 1.536-7.68 3.584-10.752 12.8-6.656 20.48l51.2 102.4c3.584 7.68 12.8 10.752 20.48 6.656 7.168-3.584 10.24-12.8 6.656-19.968zM705.024 313.344l-102.4-204.8c-2.56-5.632-8.192-8.704-13.824-8.704-2.56 0-4.608 0.512-6.656 1.536-7.68 3.584-10.752 12.8-6.656 20.48l102.4 204.8c3.584 7.68 12.8 10.752 20.48 6.656 7.168-3.584 10.24-12.8 6.656-19.968z" />
<glyph unicode="&#x12e;" glyph-name="comfort_scene_light" d="M393.216 492.544c4.608-3.072 9.728-4.608 14.848-4.608 6.656 0 13.824 2.56 18.944 7.68l115.712 112.64c17.408 16.896 26.624 39.936 25.6 64s-11.776 46.080-30.72 61.952c-1.024 0.512-2.048 1.536-2.56 2.048 0 0 0 0 0 0s0 0-0.512 0c-4.608 3.584-9.728 6.656-15.36 9.216-0.512 0-0.512 0.512-1.024 0.512-1.536 0.512-3.072 1.536-4.608 2.048-0.512 0.512-1.536 0.512-2.048 0.512-1.536 0.512-3.072 1.024-4.608 1.536-1.024 0.512-1.536 0.512-2.56 0.512-2.048 0.512-4.608 1.024-6.656 1.536-1.024 0-2.56 0.512-3.584 0.512s-2.56 0.512-3.584 0.512c-0.512 0-1.024 0-1.536 0 0 0 0 0 0 0-25.6 2.56-51.712-6.144-71.68-25.6l-9.216-9.216-9.216 9.216c-33.28 32.768-84.992 34.816-119.808 5.632-18.944-15.872-29.696-37.888-30.72-61.952s8.704-47.104 25.6-64l91.648-89.088 23.552-23.040c1.536-0.512 3.072-1.536 4.096-2.56zM364.544 563.2l-3.072 3.072-66.048 64c-11.264 10.752-16.896 25.6-16.384 40.96s7.68 29.696 19.456 39.936c10.24 8.704 23.552 13.312 36.864 13.312 15.36 0 30.208-5.632 41.984-16.896l11.776-11.264c4.096-4.096 8.704-6.144 13.824-7.168 1.024 0 2.048 0 3.072-0.512 0.512 0 1.536 0 2.048 0 1.024 0 1.536 0 2.56 0s1.536 0 2.56 0c1.536 0.512 2.56 0.512 4.096 1.024 0.512 0 0.512 0 1.024 0.512 2.56 1.024 4.608 2.56 6.656 4.096 0.512 0.512 1.536 1.024 2.048 1.536l11.776 11.264c0 0 0 0 0 0 1.536 1.536 3.072 2.56 4.096 3.584 0.512 0.512 1.024 0.512 1.536 1.024 1.024 0.512 2.048 1.536 3.072 2.048 0.512 0.512 1.536 1.024 2.048 1.024 1.024 0.512 2.048 1.024 3.072 1.536 0.512 0.512 1.536 0.512 2.048 1.024 1.024 0.512 2.048 1.024 3.072 1.536 0.512 0.512 1.536 0.512 2.048 1.024 1.024 0.512 2.048 0.512 3.072 1.024 1.024 0 1.536 0.512 2.56 0.512 1.024 0.512 2.048 0.512 3.072 0.512s1.536 0.512 2.56 0.512c1.024 0 2.048 0.512 3.072 0.512s1.536 0 2.56 0c1.024 0 2.048 0 3.072 0s1.536 0 2.56 0 2.56 0 4.096 0c0.512 0 1.024 0 1.024 0 2.048 0 3.584-0.512 5.632-1.024 0 0 0 0 0 0 8.704-2.048 17.408-5.632 24.576-11.776 12.288-10.24 18.944-24.576 19.456-39.936s-5.12-29.696-16.384-40.96l-112.64-110.080-43.52 44.032zM712.192 712.704c-40.96 39.424-95.232 59.904-152.064 57.856-6.144 0-11.776-0.512-17.92-1.536 5.12-3.072 10.24-6.656 15.36-10.752 6.656-5.632 12.288-11.776 17.408-18.432 43.52-1.536 83.968-18.944 115.712-49.152 34.816-33.792 54.272-78.848 54.272-127.488 0-36.864-11.264-72.704-32.768-102.912-24.576-33.792-56.832-85.504-56.832-140.288v-61.44h-174.080v61.952c0 50.176-26.624 96.768-56.32 139.776-5.12-1.536-10.752-2.56-16.384-2.56-7.168 0-14.336 1.536-20.48 4.096 3.072-5.632 6.656-10.752 10.24-15.872 26.624-40.448 52.224-82.944 52.224-125.44v-154.112c0-22.528 18.432-40.96 40.96-40.96h153.6c22.528 0 40.96 18.432 40.96 40.96v154.112c0 45.568 29.184 91.648 51.2 122.368 25.088 35.328 38.4 76.8 38.4 120.832 0 56.32-22.528 109.568-63.488 148.992zM655.36 166.4c0-5.632-4.608-10.24-10.24-10.24h-153.6c-5.632 0-10.24 4.608-10.24 10.24v61.44h174.080v-61.44z" />
<glyph unicode="&#x12f;" glyph-name="comfort_scene_temperature" d="M570.368 608.256c17.408 16.896 26.624 39.936 25.6 64s-11.776 46.080-30.72 61.952c-34.816 29.696-86.528 27.136-119.808-5.632l-9.216-9.216-9.216 9.216c-33.28 33.28-84.992 35.328-119.808 6.144-18.944-15.872-29.696-37.888-30.72-61.952s8.704-47.104 25.6-64l115.2-112.128c5.12-5.12 12.288-7.68 18.944-7.68s13.824 2.56 18.944 7.68l115.2 111.616zM323.584 630.272c-11.264 10.752-16.896 25.6-16.384 40.96s7.68 29.696 19.456 39.936c10.24 8.704 23.552 13.312 36.864 13.312 15.36 0 30.208-5.632 41.984-16.896l11.776-11.264c10.752-10.24 27.648-10.24 38.4 0l11.776 11.264c21.504 20.992 56.32 23.040 78.848 4.096 12.288-10.24 18.944-24.576 19.456-39.936s-5.12-29.696-16.384-40.96l-112.64-110.080-113.152 109.568zM747.52 272.896c0-41.984-17.408-82.432-48.128-110.592-28.16-26.624-64.512-40.448-102.912-40.448-3.584 0-7.168 0-11.264 0.512-74.752 5.12-135.168 65.536-140.288 140.288-4.096 57.856 24.576 112.128 75.264 141.312 1.536 1.024 2.56 2.048 2.56 3.584v111.104l30.72 30.208v-140.8c0-12.288-6.656-24.064-17.408-30.208-39.936-23.040-62.976-66.56-59.904-112.64 4.096-59.392 52.224-107.52 111.616-112.128 33.792-2.56 66.048 9.216 91.136 32.256 24.576 23.040 38.4 54.272 38.4 88.064 0 43.008-23.040 82.944-60.416 104.448-10.752 6.144-17.408 17.92-17.408 30.208v290.816c0 23.040-17.408 42.496-38.912 44.544-4.608 5.12-9.216 10.24-14.848 14.848-5.12 4.096-10.24 7.68-15.872 11.264 9.728 3.584 19.456 5.632 30.208 5.12 39.424-2.048 70.144-34.816 70.144-75.264v-290.816c0-1.536 0.512-3.072 2.048-3.584 46.592-27.648 75.264-77.824 75.264-132.096zM611.84 550.4v0c0 8.704-6.656 15.36-15.36 15.36s-15.36-6.656-15.36-15.36v-204.8c0 0 0-0.512 0-0.512-33.28-7.168-58.368-36.864-58.368-72.192 0-40.448 33.28-73.728 73.728-73.728s73.728 33.28 73.728 73.728c0 35.328-25.088 65.024-58.368 72.192 0 0 0 0.512 0 0.512v204.8zM638.976 272.896c0-23.552-19.456-43.008-43.008-43.008s-43.008 19.456-43.008 43.008c0 23.552 19.456 43.008 43.008 43.008 24.064 0 43.008-18.944 43.008-43.008z" />
<glyph unicode="&#x130;" glyph-name="comfort_scene" d="M331.776 526.848c5.12-5.12 12.288-7.68 18.944-7.68s13.824 2.56 18.944 7.68l115.2 112.128c17.408 16.896 26.624 39.936 25.6 64s-11.776 46.080-30.72 61.952c-34.816 29.696-86.528 27.136-119.808-5.632l-9.216-9.216-9.216 9.216c-33.28 32.768-84.992 34.816-119.808 5.632-18.944-15.872-29.696-37.888-30.72-61.952s8.704-47.104 25.6-64l115.2-112.128zM241.664 741.888c10.24 8.704 23.552 13.312 36.864 13.312 15.36 0 30.208-5.632 41.984-16.896l11.776-11.264c10.752-10.24 27.648-10.24 38.4 0l11.776 11.264c21.504 20.992 56.32 23.040 78.848 4.096 12.288-10.24 18.944-24.576 19.456-39.936s-5.12-29.696-16.384-40.96l-112.64-110.080-112.64 110.080c-11.264 10.752-16.896 25.6-16.384 40.96 0 14.848 6.656 29.184 18.944 39.424zM790.016 242.176c30.208-30.208 37.888-70.656 17.92-90.624-7.168-7.168-17.408-10.752-29.184-10.752-19.456 0-42.496 10.24-61.44 29.184-7.168 7.168-12.8 14.336-17.408 22.016h-376.32c-4.608-7.68-10.24-15.36-17.408-22.016-18.944-18.944-41.984-29.184-61.44-29.184-11.264 0-21.504 3.584-29.184 10.752-19.968 19.968-11.776 60.416 17.92 90.624 7.168 7.168 14.336 12.8 22.016 17.408v298.496l30.72-30.208v-268.8c0-10.752-5.632-20.992-15.36-26.624-5.632-3.584-11.264-7.68-15.872-12.288-10.24-10.24-17.408-22.016-19.456-33.28-1.536-7.168-0.512-12.288 1.536-13.824 1.536-1.536 5.632-2.048 7.168-2.048 9.216 0 24.576 5.12 39.424 19.968 4.608 4.608 9.216 10.24 12.288 15.872 5.632 9.216 15.36 15.36 26.624 15.36h377.344c10.752 0 20.992-5.632 26.624-15.36 3.584-5.632 7.68-11.264 12.288-15.872 14.848-14.848 30.72-19.968 39.424-19.968 1.536 0 5.632 0 7.168 2.048 4.096 4.096 3.072 26.112-17.92 47.104-4.608 4.608-10.24 9.216-15.872 12.288-9.216 5.632-15.36 15.36-15.36 26.624v377.344c0 10.752 5.632 20.992 15.36 26.624 5.632 3.584 11.264 7.68 15.872 12.288 20.992 20.992 22.528 43.008 17.92 47.104-1.536 1.536-5.632 2.048-7.168 2.048-9.216 0-24.576-5.12-39.424-19.968-4.608-4.608-9.216-10.24-12.288-15.872-5.632-9.216-15.36-15.36-26.624-15.36h-161.792c2.56 10.24 3.584 20.48 3.072 30.72h158.72c4.608 7.68 10.24 15.36 17.408 22.016 18.944 18.944 41.984 29.184 61.44 29.184 11.264 0 21.504-3.584 29.184-10.752 19.968-19.968 11.776-60.416-17.92-90.624-7.168-7.168-14.336-12.8-22.016-17.408v-377.344c7.68-4.096 15.36-9.728 22.016-16.896z" />
<glyph unicode="&#x131;" glyph-name="comfort_service" d="M652.288 517.632c-15.36 9.216-34.304 9.216-49.664 0l-90.624-51.712-90.624 51.712c-15.36 9.216-34.304 8.704-49.664 0-17.92-10.24-28.672-30.72-28.672-52.736v-33.792c0-22.016 11.264-42.496 28.672-52.736 7.68-4.608 16.384-6.656 25.088-6.656s16.896 2.048 25.088 6.656l90.624 51.712 90.624-51.712c7.68-4.608 16.384-6.656 25.088-6.656s16.896 2.048 25.088 6.656c17.92 10.24 28.672 30.72 28.672 52.736v33.792c-1.024 22.016-12.288 42.496-29.696 52.736zM406.528 404.992c-8.192-4.608-15.36-2.048-18.944 0-8.192 4.608-13.312 14.848-13.312 26.112v33.792c0 11.264 5.12 21.504 13.312 26.112 2.048 1.024 5.632 2.56 9.728 2.56 3.072 0 6.144-0.512 9.728-2.56l74.24-43.008-74.752-43.008zM650.24 431.104v0c0-11.264-5.12-21.504-13.312-26.112-3.584-2.048-10.752-4.608-18.944 0l-75.264 43.008 74.752 43.008c8.192 4.608 15.36 2.048 18.944 0 8.192-4.608 13.312-14.848 13.312-26.112v-33.792zM768 259.584v376.832c7.68 4.608 15.36 10.24 22.016 17.408 30.208 30.208 37.888 70.656 17.92 90.624-7.168 7.168-17.92 10.752-29.184 10.752-19.456 0-42.496-10.24-61.44-29.184-7.168-7.168-12.8-14.336-17.408-22.016h-376.32c-4.608 7.68-10.24 15.36-17.408 22.016-18.944 18.944-41.984 29.184-61.44 29.184-11.264 0-21.504-3.584-29.184-10.752-19.968-19.968-11.776-60.928 18.432-90.624 7.168-7.168 14.336-12.8 22.016-17.408v-377.344c-7.68-4.608-15.36-10.24-22.016-17.408-30.208-30.208-37.888-70.656-17.92-90.624 7.168-7.168 17.408-10.752 29.184-10.752 19.456 0 42.496 10.24 61.44 29.184 7.168 7.168 12.8 14.336 17.408 22.016h377.344c4.608-7.68 10.24-15.36 17.408-22.016 18.944-18.944 41.984-29.184 61.44-29.184 11.264 0 21.504 3.584 29.184 10.752 19.968 19.968 11.776 60.416-17.92 90.624-8.192 7.68-15.872 13.312-23.552 17.92zM786.432 173.568c-1.536-1.536-5.632-2.048-7.168-2.048-9.216 0-24.576 5.12-39.424 19.968-4.608 4.608-9.216 10.24-12.288 15.872-5.632 9.216-15.36 15.36-26.624 15.36h-377.344c-10.752 0-20.992-5.632-26.624-15.36-3.584-5.632-7.68-11.264-12.288-15.872-14.848-14.848-30.72-19.968-39.424-19.968-1.536 0-5.632 0-7.168 2.048-1.536 1.536-2.56 6.656-1.536 13.824 2.048 11.264 9.216 23.040 19.456 33.28 4.608 4.608 10.24 9.216 15.872 12.288 9.216 5.632 15.36 15.36 15.36 26.624v376.832c0 10.752-5.632 20.992-15.36 26.624-5.632 3.584-11.264 7.68-15.872 12.288-20.992 20.992-22.528 43.008-17.92 47.104 1.536 1.536 5.632 2.048 7.168 2.048 9.216 0 24.576-5.12 39.424-19.968 4.608-4.608 9.216-10.24 12.288-15.872 5.632-9.216 15.36-15.36 26.624-15.36h377.344c10.752 0 20.992 5.632 26.624 15.36 3.584 5.632 7.68 11.264 12.288 15.872 14.848 14.848 30.72 19.968 39.424 19.968 1.536 0 5.632 0 7.168-2.048 4.096-4.096 3.072-26.112-17.92-47.104-4.608-4.608-10.24-9.216-15.872-12.288-9.216-5.632-15.36-15.36-15.36-26.624v-377.344c0-10.752 5.632-20.992 15.36-26.624 5.632-3.584 11.264-7.68 15.872-12.288 20.992-20.992 22.016-42.496 17.92-46.592z" />
<glyph unicode="&#x132;" glyph-name="comfort_steward_message" d="M679.936 360.96h-35.84v1.536c0 22.016-11.264 42.496-28.672 52.736-15.36 9.216-34.304 9.216-49.664 0l-90.624-51.712-90.624 51.712c-15.36 9.216-34.304 8.704-49.664 0-17.92-10.24-28.672-30.72-28.672-52.736v-1.536h-35.84c-65.024 0-117.76-52.736-117.76-117.76v-102.4c0-8.704 6.656-15.36 15.36-15.36h614.4c8.704 0 15.36 6.656 15.36 15.36v102.4c0 65.024-53.248 117.76-117.76 117.76zM580.608 388.608c8.192 4.608 15.36 2.048 18.944 0 8.192-4.608 13.312-14.848 13.312-26.112v-33.792c0-11.264-5.12-21.504-13.312-26.112-3.584-2.048-10.752-4.608-18.944 0l-74.752 43.008 74.752 43.008zM336.896 362.496c0 11.264 5.12 21.504 13.312 26.112 2.048 1.024 5.632 2.56 9.728 2.56 3.072 0 6.144-0.512 9.728-2.56l74.752-43.008-74.752-43.008c-8.192-4.608-15.36-2.048-18.944 0-8.192 4.608-13.312 14.848-13.312 26.112v33.792zM766.976 156.16h-583.68v87.040c0 48.128 38.912 87.040 87.040 87.040h35.84v-1.536c0-22.016 11.264-42.496 28.672-52.736 7.68-4.608 16.384-6.656 25.088-6.656s16.896 2.048 25.088 6.656l90.624 51.712 90.624-51.712c7.68-4.608 16.384-6.656 25.088-6.656s16.896 2.048 25.088 6.656c17.92 10.24 28.672 30.72 28.672 52.736v1.536h35.84c48.128 0 87.040-38.912 87.040-87.040v-87.040zM475.136 432.64c93.184 0 168.96 75.776 168.96 168.96s-75.776 168.96-168.96 168.96-168.96-75.776-168.96-168.96 75.776-168.96 168.96-168.96zM475.136 739.84c76.288 0 138.24-61.952 138.24-138.24s-61.952-138.24-138.24-138.24-138.24 61.952-138.24 138.24 61.952 138.24 138.24 138.24zM664.576 660.48c0 12.8 10.24 23.040 23.040 23.040s23.040-10.24 23.040-23.040c0-12.8-10.24-23.040-23.040-23.040s-23.040 10.24-23.040 23.040zM871.424 660.48c0-12.8-10.24-23.040-23.040-23.040s-23.040 10.24-23.040 23.040c0 12.8 10.24 23.040 23.040 23.040s23.040-10.24 23.040-23.040zM744.96 660.48c0 12.8 10.24 23.040 23.040 23.040s23.040-10.24 23.040-23.040c0-12.8-10.24-23.040-23.040-23.040s-23.040 10.24-23.040 23.040z" />
<glyph unicode="&#x133;" glyph-name="comfort_steward" d="M716.8 360.96h-35.84v1.536c0 22.016-11.264 42.496-28.672 52.736-15.36 9.216-34.304 9.216-49.664 0l-90.624-51.712-90.624 51.712c-15.36 9.216-34.304 8.704-49.664 0-17.92-10.24-28.672-30.72-28.672-52.736v-1.536h-35.84c-65.024 0-117.76-52.736-117.76-117.76v-102.4c0-8.704 6.656-15.36 15.36-15.36h614.4c8.704 0 15.36 6.656 15.36 15.36v102.4c0 65.024-52.736 117.76-117.76 117.76zM617.472 388.608c8.192 4.608 15.36 2.048 18.944 0 8.192-4.608 13.312-14.848 13.312-26.112v-33.792c0-11.264-5.12-21.504-13.312-26.112-3.584-2.048-10.752-4.608-18.944 0l-74.752 43.008 74.752 43.008zM373.76 362.496c0 11.264 5.12 21.504 13.312 26.112 2.048 1.024 5.632 2.56 9.728 2.56 3.072 0 6.144-0.512 9.728-2.56l74.752-43.008-74.752-43.008c-8.192-4.608-15.36-2.048-18.944 0-8.192 4.608-13.312 14.848-13.312 26.112v33.792zM220.16 156.16v87.040c0 48.128 38.912 87.040 87.040 87.040h35.84v-1.536c0-22.016 11.264-42.496 28.672-52.736 7.68-4.608 16.384-6.656 25.088-6.656s16.896 2.048 25.088 6.656l90.624 51.712 90.624-51.712c7.68-4.608 16.384-6.656 25.088-6.656s16.896 2.048 25.088 6.656c17.92 10.24 28.672 30.72 28.672 52.736v1.536h35.84c48.128 0 87.040-38.912 87.040-87.040v-87.040h-584.704zM512 432.64c93.184 0 168.96 75.776 168.96 168.96s-75.776 168.96-168.96 168.96-168.96-75.776-168.96-168.96 75.776-168.96 168.96-168.96zM512 739.84c76.288 0 138.24-61.952 138.24-138.24s-61.952-138.24-138.24-138.24-138.24 61.952-138.24 138.24 61.952 138.24 138.24 138.24z" />
<glyph unicode="&#x134;" glyph-name="comfort_sun" d="M819.2 463.36h-87.552c-3.584 49.152-23.040 93.696-53.76 129.024l61.952 61.952c6.144 6.144 6.144 15.872 0 21.504s-15.872 6.144-21.504 0l-61.952-61.952c-34.816 30.72-79.872 50.176-129.024 53.76v87.552c0 8.704-6.656 15.36-15.36 15.36s-15.36-6.656-15.36-15.36v-87.552c-49.152-3.584-93.696-23.040-129.024-53.76l-61.952 61.952c-6.144 6.144-15.872 6.144-21.504 0-6.144-6.144-6.144-15.872 0-21.504l61.952-61.952c-30.72-34.816-50.176-79.872-53.76-129.024h-87.552c-8.704 0-15.36-6.656-15.36-15.36s6.656-15.36 15.36-15.36h87.552c3.584-49.152 23.040-93.696 53.76-129.024l-61.952-61.952c-6.144-6.144-6.144-15.872 0-21.504 3.072-3.072 7.168-4.608 10.752-4.608 4.096 0 7.68 1.536 10.752 4.608l61.952 61.952c34.816-30.72 79.872-50.176 129.024-53.76v-87.552c0-8.704 6.656-15.36 15.36-15.36s15.36 6.656 15.36 15.36v87.552c49.152 3.584 93.696 23.040 129.024 53.76l61.952-61.952c3.072-3.072 7.168-4.608 10.752-4.608 4.096 0 7.68 1.536 10.752 4.608 6.144 6.144 6.144 15.872 0 21.504l-61.952 61.952c30.72 34.816 50.176 79.872 53.76 129.024h87.552c8.704 0 15.36 6.656 15.36 15.36s-6.656 15.36-15.36 15.36zM512 258.56c-104.448 0-189.44 84.992-189.44 189.44s84.992 189.44 189.44 189.44 189.44-84.992 189.44-189.44c0-104.448-84.992-189.44-189.44-189.44z" />
<glyph unicode="&#x135;" glyph-name="comfort_sunrise" d="M819.2 463.36h-87.552c-3.584 49.152-23.040 93.696-53.76 129.024l61.952 61.952c6.144 6.144 6.144 15.872 0 21.504-6.144 6.144-15.872 6.144-21.504 0l-61.952-61.952c-34.816 30.72-79.872 50.176-129.024 53.76v87.552c0 8.704-6.656 15.36-15.36 15.36s-15.36-6.656-15.36-15.36v-87.552c-49.152-3.584-93.696-23.040-129.024-53.76l-61.952 61.952c-6.144 6.144-15.872 6.144-21.504 0-6.144-6.144-6.144-15.872 0-21.504l61.952-61.952c-30.72-34.816-50.176-79.872-53.76-129.024h-87.552c-8.704 0-15.36-6.656-15.36-15.36s6.656-15.36 15.36-15.36h614.4c8.704 0 15.36 6.656 15.36 15.36s-6.656 15.36-15.36 15.36zM323.072 463.36c7.68 97.28 89.6 174.080 188.928 174.080s180.736-76.8 188.928-174.080h-377.856zM612.352 274.432c6.144-6.144 6.144-15.872 0-21.504-3.072-3.072-7.168-4.608-10.752-4.608s-7.68 1.536-10.752 4.608l-63.488 62.976v-175.104c0-8.704-6.656-15.36-15.36-15.36s-15.36 6.656-15.36 15.36v175.104l-63.488-63.488c-6.144-6.144-15.872-6.144-21.504 0s-6.144 15.872 0 21.504l76.8 76.8c6.144 6.144 14.848 9.728 23.552 9.728s17.408-3.584 23.552-9.728l76.8-76.288z" />
<glyph unicode="&#x136;" glyph-name="comfort_sunset" d="M819.2 463.36h-87.634c-3.41 49.162-23.009 93.906-53.519 128.963l62.044 62.044c6.001 5.996 6.001 15.724 0 21.719-6.001 6.001-15.718 6.001-21.719 0l-62.049-62.044c-35.057 30.51-79.8 50.115-128.963 53.519v87.639c0 8.484-6.876 15.36-15.36 15.36s-15.36-6.876-15.36-15.36v-87.634c-49.162-3.41-93.906-23.009-128.963-53.519l-62.039 62.039c-6.001 6.001-15.718 6.001-21.719 0-6.001-5.996-6.001-15.718 0-21.719l62.039-62.044c-30.51-35.057-50.115-79.8-53.524-128.963h-87.634c-8.484 0-15.36-6.876-15.36-15.36s6.876-15.36 15.36-15.36h614.4c8.484 0 15.36 6.876 15.36 15.36s-6.876 15.36-15.36 15.36zM512 637.44c99.282 0 180.91-76.785 188.764-174.080h-377.528c7.854 97.295 89.482 174.080 188.764 174.080zM590.74 233.836l-63.38-63.375v175.14c0 8.484-6.876 15.36-15.36 15.36s-15.36-6.876-15.36-15.36v-175.14l-63.38 63.375c-6.001 6.001-15.718 6.001-21.719 0s-6.001-15.724 0-21.719l76.923-76.918c6.287-6.292 14.648-9.759 23.537-9.759s17.249 3.466 23.532 9.748l76.928 76.923c6.001 5.996 6.001 15.718 0 21.719s-15.718 6.006-21.719 0.005z" />
<glyph unicode="&#x137;" glyph-name="comfort_temperature_decrease" d="M358.4 663.040h-153.6c-8.704 0-15.36 6.656-15.36 15.36s6.656 15.36 15.36 15.36h153.6c8.704 0 15.36-6.656 15.36-15.36s-6.656-15.36-15.36-15.36zM706.56 217.6c0-53.76-22.528-105.472-61.952-142.336-36.352-33.792-82.944-52.224-132.608-52.224-4.608 0-9.216 0-14.336 0.512-96.256 6.656-173.568 84.48-180.224 180.736-5.12 74.752 31.744 144.384 96.256 181.76 3.584 2.048 5.632 5.12 5.632 9.216v385.536c0 25.6 10.24 49.152 28.672 66.56s42.496 26.624 68.096 25.6c49.152-2.56 87.552-43.52 87.552-94.208v-383.488c0-4.096 2.048-7.168 5.12-9.216 60.416-34.816 97.792-99.328 97.792-168.448zM675.84 217.6c0 58.368-31.232 112.64-81.92 141.824-12.8 7.168-20.48 20.992-20.48 35.84v383.488c0 33.28-26.112 61.952-58.368 63.488-1.024 0-2.048 0-3.072 0-15.872 0-30.72-6.144-42.496-16.896-12.288-11.776-18.944-27.648-18.944-44.544v-386.048c0-14.336-8.192-28.16-20.992-35.84-54.272-31.744-85.504-90.112-81.408-153.088 5.632-80.896 70.656-146.432 151.552-152.064 46.080-3.072 90.112 12.288 123.392 43.52 33.792 31.232 52.736 75.264 52.736 120.32zM604.16 217.6c0-50.688-41.472-92.16-92.16-92.16s-92.16 41.472-92.16 92.16 41.472 92.16 92.16 92.16c50.688 0 92.16-41.472 92.16-92.16zM573.44 217.6c0 33.792-27.648 61.44-61.44 61.44s-61.44-27.648-61.44-61.44 27.648-61.44 61.44-61.44c33.792 0 61.44 27.648 61.44 61.44z" />
<glyph unicode="&#x138;" glyph-name="comfort_temperature_increase" d="M296.96 663.040v-61.44c0-8.704-6.656-15.36-15.36-15.36s-15.36 6.656-15.36 15.36v61.44h-61.44c-8.704 0-15.36 6.656-15.36 15.36s6.656 15.36 15.36 15.36h61.44v61.44c0 8.704 6.656 15.36 15.36 15.36s15.36-6.656 15.36-15.36v-61.44h61.44c8.704 0 15.36-6.656 15.36-15.36s-6.656-15.36-15.36-15.36h-61.44zM706.56 217.6c0-53.76-22.528-105.472-61.952-142.336-36.352-33.792-82.944-52.224-132.608-52.224-4.608 0-9.216 0-14.336 0.512-96.256 6.656-173.568 84.48-180.224 180.736-5.12 74.752 31.744 144.384 96.256 181.76 3.584 2.048 5.632 5.12 5.632 9.216v385.536c0 25.6 10.24 49.152 28.672 66.56s42.496 26.624 68.096 25.6c49.152-2.56 87.552-43.52 87.552-94.208v-383.488c0-4.096 2.048-7.168 5.12-9.216 60.416-34.816 97.792-99.328 97.792-168.448zM675.84 217.6c0 58.368-31.232 112.64-81.92 141.824-12.8 7.168-20.48 20.992-20.48 35.84v383.488c0 33.28-26.112 61.952-58.368 63.488-1.024 0-2.048 0-3.072 0-15.872 0-30.72-6.144-42.496-16.896-12.288-11.776-18.944-27.648-18.944-44.544v-386.048c0-14.336-8.192-28.16-20.992-35.84-54.272-31.744-85.504-90.112-81.408-153.088 5.632-80.896 70.656-146.432 151.552-152.064 46.080-3.072 90.112 12.288 123.392 43.52 33.792 31.232 52.736 75.264 52.736 120.32zM604.16 217.6c0-50.688-41.472-92.16-92.16-92.16s-92.16 41.472-92.16 92.16 41.472 92.16 92.16 92.16c50.688 0 92.16-41.472 92.16-92.16zM573.44 217.6c0 33.792-27.648 61.44-61.44 61.44s-61.44-27.648-61.44-61.44 27.648-61.44 61.44-61.44c33.792 0 61.44 27.648 61.44 61.44z" />
<glyph unicode="&#x139;" glyph-name="comfort_temperature_off" d="M609.28 386.048c-3.072 1.536-5.12 5.12-5.12 9.216v383.488c0 50.688-38.4 92.16-87.552 94.208-25.6 1.024-49.664-7.68-68.096-25.6-18.432-17.408-28.672-40.96-28.672-66.56v-386.048c0-3.584-2.048-7.168-5.632-9.216-64.512-37.376-101.376-107.008-96.256-181.76 6.656-96.256 83.968-173.568 180.224-180.736 4.608-0.512 9.728-0.512 14.336-0.512 49.664 0 96.256 18.432 132.608 52.224 39.424 36.864 61.952 88.576 61.952 142.336-0.512 69.632-37.888 134.144-97.792 168.96zM623.616 97.792c-33.792-31.232-77.312-46.592-123.392-43.52-80.896 5.632-145.92 71.168-151.552 152.064-4.096 62.976 26.624 121.344 81.408 153.088 12.8 7.68 20.992 20.992 20.992 35.84v385.536c0 16.896 6.656 32.768 18.944 44.544 11.264 10.752 26.112 16.896 41.984 16.896 1.024 0 2.048 0 3.072 0 32.256-1.536 58.368-30.208 58.368-63.488v-383.488c0-14.848 7.68-28.672 20.48-35.84 50.688-29.184 81.92-83.456 81.92-141.824 0-45.056-18.944-89.088-52.224-119.808zM512 309.76c-50.688 0-92.16-41.472-92.16-92.16s41.472-92.16 92.16-92.16c50.688 0 92.16 41.472 92.16 92.16s-41.472 92.16-92.16 92.16zM512 156.16c-33.792 0-61.44 27.648-61.44 61.44s27.648 61.44 61.44 61.44c33.792 0 61.44-27.648 61.44-61.44s-27.648-61.44-61.44-61.44z" />
<glyph unicode="&#x13a;" glyph-name="comfort_temperature_on" d="M609.28 386.048c-3.072 1.536-5.12 5.12-5.12 9.216v383.488c0 50.688-38.4 92.16-87.552 94.208-25.6 1.024-49.664-7.68-68.096-25.6-18.432-17.408-28.672-40.96-28.672-66.56v-386.048c0-3.584-2.048-7.168-5.632-9.216-64.512-37.376-101.376-107.008-96.256-181.76 6.656-96.256 83.968-173.568 180.224-180.736 4.608-0.512 9.728-0.512 14.336-0.512 49.664 0 96.256 18.432 132.608 52.224 39.424 36.864 61.952 88.576 61.952 142.336-0.512 69.632-37.888 134.144-97.792 168.96zM623.616 97.792c-33.792-31.232-77.312-46.592-123.392-43.52-80.896 5.632-145.92 71.168-151.552 152.064-4.096 62.976 26.624 121.344 81.408 153.088 12.8 7.68 20.992 20.992 20.992 35.84v385.536c0 16.896 6.656 32.768 18.944 44.544 11.264 10.752 26.112 16.896 41.984 16.896 1.024 0 2.048 0 3.072 0 32.256-1.536 58.368-30.208 58.368-63.488v-383.488c0-14.848 7.68-28.672 20.48-35.84 50.688-29.184 81.92-83.456 81.92-141.824 0-45.056-18.944-89.088-52.224-119.808zM527.36 308.224v293.376c0 8.704-6.656 15.36-15.36 15.36s-15.36-6.656-15.36-15.36v-293.376c-43.52-7.168-76.8-45.056-76.8-90.624 0-50.688 41.472-92.16 92.16-92.16s92.16 41.472 92.16 92.16c0 45.568-33.28 83.456-76.8 90.624zM512 156.16c-33.792 0-61.44 27.648-61.44 61.44s27.648 61.44 61.44 61.44c33.792 0 61.44-27.648 61.44-61.44s-27.648-61.44-61.44-61.44z" />
<glyph unicode="&#x13b;" glyph-name="comfort_temperature_water" d="M527.36 448c0-8.704-6.656-15.36-15.36-15.36-27.136 0-53.248 10.24-74.24 28.672-1.536 1.536-4.096 1.536-5.632 0-20.48-18.432-46.592-28.672-73.728-28.672s-53.248 10.24-74.24 28.672c-1.536 1.536-4.096 1.536-5.632 0-20.48-18.432-46.592-28.672-73.728-28.672-8.704 0-15.36 6.656-15.36 15.36s6.656 15.36 15.36 15.36c19.456 0 38.4 7.168 53.76 20.992 13.312 11.776 33.28 11.776 46.592 0 15.36-13.824 33.792-20.992 53.76-20.992 19.456 0 38.4 7.168 53.76 20.992 13.312 11.776 33.28 11.776 46.592 0 15.36-13.824 33.792-20.992 53.76-20.992 7.68 0 14.336-6.656 14.336-15.36zM273.408 600.064c1.536 1.536 4.096 1.536 5.632 0 20.992-18.432 47.104-28.672 74.24-28.672s53.248 10.24 74.24 28.672c1.536 1.536 4.096 1.536 5.632 0 20.992-18.432 47.104-28.672 74.24-28.672 8.704 0 15.36 6.656 15.36 15.36s-6.656 15.36-15.36 15.36c-19.456 0-38.4 7.168-53.76 20.992-13.312 11.776-33.28 11.776-46.592 0-15.36-13.824-33.792-20.992-53.76-20.992-19.456 0-38.4 7.168-53.76 20.992-13.312 11.776-33.28 11.776-46.592 0-15.36-13.824-33.792-20.992-53.76-20.992-8.704 0-15.36-6.656-15.36-15.36s6.656-15.36 15.36-15.36c27.136 0 53.76 10.24 74.24 28.672zM204.8 710.144c27.136 0 53.248 10.24 74.24 28.672 1.536 1.536 4.096 1.536 5.632 0 20.992-18.432 47.104-28.672 74.24-28.672s53.248 10.24 74.24 28.672c1.536 1.536 4.096 1.536 5.632 0 20.992-18.432 47.104-28.672 74.24-28.672 8.704 0 15.36 6.656 15.36 15.36s-6.656 15.36-15.36 15.36c-19.456 0-38.4 7.168-53.76 20.992-13.312 11.776-33.28 11.776-46.592 0-15.36-13.824-33.792-20.992-53.76-20.992s-38.4 7.168-53.76 20.992c-13.312 11.776-33.28 11.776-46.592 0-15.36-13.824-33.792-20.992-53.76-20.992-8.704 0-15.36-6.656-15.36-15.36s6.656-15.36 15.36-15.36zM834.56 217.6c0-50.688-41.472-92.16-92.16-92.16s-92.16 41.472-92.16 92.16c0 45.568 33.28 83.456 76.8 90.624v446.976c0 8.704 6.656 15.36 15.36 15.36s15.36-6.656 15.36-15.36v-446.976c43.52-7.168 76.8-45.056 76.8-90.624zM803.84 217.6c0 33.792-27.648 61.44-61.44 61.44s-61.44-27.648-61.44-61.44 27.648-61.44 61.44-61.44 61.44 27.648 61.44 61.44z" />
<glyph unicode="&#x13c;" glyph-name="comfort_temperature" d="M609.28 386.048c-3.072 1.536-5.12 5.12-5.12 9.216v383.488c0 50.688-38.4 92.16-87.552 94.208-53.248 2.56-96.768-39.936-96.768-92.16v-386.048c0-3.584-2.048-7.168-5.632-9.216-64.512-37.376-101.376-107.008-96.256-181.76 6.656-96.256 83.968-173.568 180.224-180.736 4.608-0.512 9.216-0.512 13.824-0.512 0 0 0 0 0 0 51.712 0 100.864 20.48 137.728 56.832 36.864 36.864 56.832 85.504 56.832 137.728 0 69.632-37.376 134.144-97.28 168.96zM627.712 101.888c-30.72-30.72-72.192-48.128-115.712-48.128v0c-4.096 0-7.68 0-11.776 0.512-80.896 5.632-145.92 71.168-151.552 152.064-4.096 62.976 26.624 121.344 81.408 153.088 12.8 7.68 20.992 20.992 20.992 35.84v385.536c0 33.792 27.648 61.44 61.44 61.44 1.024 0 2.048 0 3.072 0 32.256-1.536 58.368-30.208 58.368-63.488v-383.488c0-14.848 7.68-28.672 20.48-35.84 50.688-29.184 81.92-83.456 81.92-141.824-0.512-43.52-17.408-84.992-48.64-115.712zM527.36 308.224v139.776c0 8.704-6.656 15.36-15.36 15.36s-15.36-6.656-15.36-15.36v-139.776c-43.52-7.168-76.8-45.056-76.8-90.624 0-50.688 41.472-92.16 92.16-92.16s92.16 41.472 92.16 92.16c0 45.568-33.28 83.456-76.8 90.624zM512 156.16c-33.792 0-61.44 27.648-61.44 61.44s27.648 61.44 61.44 61.44 61.44-27.648 61.44-61.44-27.648-61.44-61.44-61.44z" />
<glyph unicode="&#x13d;" glyph-name="comfort_waves" d="M819.2 156.16c-27.648 0-53.248 10.24-74.752 29.184-15.872 13.824-39.424 13.824-54.784 0-21.504-19.456-47.616-29.184-74.752-29.184s-53.248 10.24-74.752 29.184c-15.872 13.824-39.424 13.824-54.784 0-22.528-18.944-48.128-29.184-75.776-29.184s-53.248 10.24-74.752 29.184c-15.872 13.824-39.424 13.824-54.784 0-22.016-18.944-47.616-29.184-75.264-29.184-8.704 0-15.36-6.656-15.36-15.36s6.656-15.36 15.36-15.36c34.816 0 68.608 13.312 95.232 37.376 4.096 3.584 10.24 3.584 14.336 0 27.136-24.064 60.928-37.376 95.232-37.376s68.608 13.312 95.232 37.376c4.096 3.584 10.24 3.584 14.336 0 27.136-24.064 60.928-37.376 95.232-37.376s68.608 13.312 95.232 37.376c4.096 3.584 10.24 3.584 14.336 0 27.136-24.064 60.928-37.376 95.232-37.376 8.704 0 15.36 6.656 15.36 15.36s-6.656 15.36-15.36 15.36zM204.8 688.128c34.816 0 68.608 13.312 95.232 37.376 4.096 3.584 10.24 3.584 14.336 0 27.136-24.064 60.928-37.376 95.232-37.376s68.608 13.312 95.232 37.376c4.096 3.584 10.24 3.584 14.336 0 27.136-24.064 60.928-37.376 95.232-37.376s68.608 13.312 95.232 37.376c4.096 3.584 10.24 3.584 14.336 0 27.136-24.064 60.928-37.376 95.232-37.376 8.704 0 15.36 6.656 15.36 15.36s-6.656 15.36-15.36 15.36c-27.648 0-53.248 10.24-74.752 29.184-15.872 13.824-39.424 13.824-54.784 0-21.504-19.456-47.616-29.184-74.752-29.184-27.648 0-53.248 10.24-74.752 29.184-15.872 13.824-39.424 13.824-54.784 0-21.504-19.456-47.616-29.184-74.752-29.184-27.648 0-53.248 10.24-74.752 29.184-15.872 13.824-39.424 13.824-54.784 0-21.504-19.456-47.616-29.184-74.752-29.184-8.704 0-15.36-6.656-15.36-15.36-1.536-8.192 5.12-15.36 13.824-15.36zM819.2 343.552c-27.648 0-53.248 10.24-74.752 29.184-15.872 13.824-39.424 13.824-54.784 0-21.504-19.456-47.616-29.184-74.752-29.184-27.648 0-53.248 10.24-74.752 29.184-15.872 13.824-39.424 13.824-54.784 0-21.504-19.456-47.616-29.184-74.752-29.184-27.648 0-53.248 10.24-74.752 29.184-15.872 13.824-39.424 13.824-54.784 0-21.504-19.456-47.616-29.184-74.752-29.184-8.704 0-15.36-6.656-15.36-15.36s6.656-15.36 15.36-15.36c34.816 0 68.608 13.312 95.232 37.376 4.096 3.584 10.24 3.584 14.336 0 27.136-24.064 60.928-37.376 95.232-37.376s68.608 13.312 95.232 37.376c4.096 3.584 10.24 3.584 14.336 0 27.136-24.064 60.928-37.376 95.232-37.376s68.608 13.312 95.232 37.376c4.096 3.584 10.24 3.584 14.336 0 27.136-24.064 60.928-37.376 95.232-37.376 8.704 0 15.36 6.656 15.36 15.36s-8.192 15.36-16.896 15.36zM819.2 531.456c-27.648 0-53.248 10.24-74.752 29.184-15.872 13.824-39.424 13.824-54.784 0-21.504-19.456-47.616-29.184-74.752-29.184-27.648 0-53.248 10.24-74.752 29.184-15.872 13.824-39.424 13.824-54.784 0-21.504-19.456-47.616-29.184-74.752-29.184-27.648 0-53.248 10.24-74.752 29.184-15.872 13.824-39.424 13.824-54.784 0-21.504-19.456-47.616-29.184-74.752-29.184-8.704 0-15.36-6.656-15.36-15.36s6.656-15.36 15.36-15.36c34.816 0 68.608 13.312 95.232 37.376 4.096 3.584 10.24 3.584 14.336 0 27.136-24.064 60.928-37.376 95.232-37.376s68.608 13.312 95.232 37.376c4.096 3.584 10.24 3.584 14.336 0 27.136-24.064 60.928-37.376 95.232-37.376s68.608 13.312 95.232 37.376c4.096 3.584 10.24 3.584 14.336 0 27.136-24.064 60.928-37.376 95.232-37.376 8.704 0 15.36 6.656 15.36 15.36s-8.192 15.36-16.896 15.36z" />
<glyph unicode="&#x13e;" glyph-name="comfort_wind" d="M800.256 671.744l-490.496 80.896-72.704 12.8c-2.048 0.512-4.608 0.512-6.656 0.512-22.528 0-40.96-18.432-40.96-40.96v-584.192c0-8.704 6.656-15.36 15.36-15.36s15.36 6.656 15.36 15.36v192l580.096 95.744c19.968 3.072 34.304 20.48 34.304 40.448v162.304c0 19.968-14.336 36.864-34.304 40.448zM291.84 375.808l-71.68-11.776v360.96c0 5.632 4.608 10.24 10.24 10.24 0.512 0 1.024 0 1.536 0l59.904-10.24v-349.184zM394.24 392.704l-71.68-11.776v338.944l71.68-11.776v-315.392zM496.64 409.6l-71.68-11.776v305.152l71.68-11.776v-281.6zM599.040 427.008l-71.68-11.776v270.848l71.68-11.776v-247.296zM701.44 443.904l-71.68-11.776v236.544l71.68-11.776v-212.992zM803.84 469.504c0-5.12-3.584-9.216-8.704-10.24l-62.976-10.24v202.752l62.976-10.752c5.12-1.024 8.704-5.12 8.704-10.24v-161.28z" />
<glyph unicode="&#x13f;" glyph-name="comfort" d="M790.016 242.176c-7.168 7.168-14.336 12.8-22.016 17.408v376.832c7.68 4.608 15.36 10.24 22.016 17.408 30.208 30.208 37.888 70.656 17.92 90.624-7.168 7.168-17.408 10.752-29.184 10.752-19.456 0-42.496-10.24-61.44-29.184-7.168-7.168-12.8-14.336-17.408-22.016h-376.32c-4.608 7.68-10.24 15.36-17.408 22.016-18.944 18.944-41.984 29.184-61.44 29.184-11.264 0-21.504-3.584-29.184-10.752-19.968-19.968-11.776-60.928 18.432-90.624 7.168-7.168 14.336-12.8 22.016-17.408v-377.344c-7.68-4.608-15.36-10.24-22.016-17.408-30.208-30.208-37.888-70.656-17.92-90.624 7.168-7.168 17.408-10.752 29.184-10.752 19.456 0 42.496 10.24 61.44 29.184 7.168 7.168 12.8 14.336 17.408 22.016h377.344c4.608-7.68 10.24-15.36 17.408-22.016 18.944-18.944 41.984-29.184 61.44-29.184 11.264 0 21.504 3.584 29.184 10.752 18.944 20.48 10.752 61.44-19.456 91.136zM786.432 173.568c-1.536-1.536-5.632-2.048-7.168-2.048-9.216 0-24.576 5.12-39.424 19.968-4.608 4.608-9.216 10.24-12.288 15.872-5.632 9.216-15.36 15.36-26.624 15.36h-377.344c-10.752 0-20.992-5.632-26.624-15.36-3.584-5.632-7.68-11.264-12.288-15.872-14.848-14.848-30.72-19.968-39.424-19.968-1.536 0-5.632 0-7.168 2.048-1.536 1.536-2.56 6.656-1.536 13.824 2.048 11.264 9.216 23.040 19.456 33.28 4.608 4.608 10.24 9.216 15.872 12.288 9.216 5.632 15.36 15.36 15.36 26.624v376.832c0 10.752-5.632 20.992-15.36 26.624-5.632 3.584-11.264 7.68-15.872 12.288-10.24 10.24-17.408 22.016-19.456 33.28-1.536 7.168-0.512 12.288 1.536 13.824 1.536 1.536 5.632 2.048 7.168 2.048 9.216 0 24.576-5.12 39.424-19.968 4.608-4.608 9.216-10.24 12.288-15.872 5.632-9.216 15.36-15.36 26.624-15.36h377.344c10.752 0 20.992 5.632 26.624 15.36 3.584 5.632 7.68 11.264 12.288 15.872 14.848 14.848 30.72 19.968 39.424 19.968 1.536 0 5.632 0 7.68-2.048 4.096-4.096 3.072-26.112-17.92-47.104-4.608-4.608-10.24-9.216-15.872-12.288-9.216-5.632-15.36-15.36-15.36-26.624v-377.344c0-10.752 5.632-20.992 15.36-26.624 5.632-3.584 11.264-7.68 15.872-12.288 20.48-20.992 21.504-42.496 17.408-46.592z" />
<glyph unicode="&#x140;" glyph-name="control_list" d="M394.24 755.2c0 8.704 6.656 15.36 15.36 15.36h409.6c8.704 0 15.36-6.656 15.36-15.36s-6.656-15.36-15.36-15.36h-409.6c-8.704 0-15.36 6.656-15.36 15.36zM281.6 791.552l-41.984-41.984-24.064 24.064c-6.144 6.144-15.872 6.144-21.504 0-6.144-6.144-6.144-15.872 0-21.504l32.768-32.768c3.584-3.584 8.704-5.632 13.312-5.632 5.12 0 9.728 2.048 13.312 5.632l50.176 50.176c6.144 6.144 6.144 15.872 0 21.504-6.144 6.656-15.872 6.656-22.016 0.512zM819.2 616.96h-409.6c-8.704 0-15.36-6.656-15.36-15.36s6.656-15.36 15.36-15.36h409.6c8.704 0 15.36 6.656 15.36 15.36s-6.656 15.36-15.36 15.36zM281.6 637.952l-41.984-41.984-24.064 24.064c-6.144 6.144-15.872 6.144-21.504 0-6.144-6.144-6.144-15.872 0-21.504l32.768-32.768c3.584-3.584 8.704-5.632 13.312-5.632 5.12 0 9.728 2.048 13.312 5.632l50.176 50.176c6.144 6.144 6.144 15.872 0 21.504-6.144 6.656-15.872 6.656-22.016 0.512zM819.2 463.36h-409.6c-8.704 0-15.36-6.656-15.36-15.36s6.656-15.36 15.36-15.36h409.6c8.704 0 15.36 6.656 15.36 15.36s-6.656 15.36-15.36 15.36zM281.6 484.352l-41.984-41.984-24.064 24.064c-6.144 6.144-15.872 6.144-21.504 0-6.144-6.144-6.144-15.872 0-21.504l32.768-32.768c3.584-3.584 8.704-5.632 13.312-5.632 5.12 0 9.728 2.048 13.312 5.632l50.176 50.176c6.144 6.144 6.144 15.872 0 21.504-6.144 6.656-15.872 6.656-22.016 0.512zM819.2 309.76h-409.6c-8.704 0-15.36-6.656-15.36-15.36s6.656-15.36 15.36-15.36h409.6c8.704 0 15.36 6.656 15.36 15.36s-6.656 15.36-15.36 15.36zM281.6 330.752l-41.984-41.984-24.064 24.064c-6.144 6.144-15.872 6.144-21.504 0-6.144-6.144-6.144-15.872 0-21.504l32.768-32.768c3.584-3.584 8.704-5.632 13.312-5.632 5.12 0 9.728 2.048 13.312 5.632l50.176 50.176c6.144 6.144 6.144 15.872 0 21.504-6.144 6.656-15.872 6.656-22.016 0.512zM819.2 156.16h-409.6c-8.704 0-15.36-6.656-15.36-15.36s6.656-15.36 15.36-15.36h409.6c8.704 0 15.36 6.656 15.36 15.36s-6.656 15.36-15.36 15.36zM281.6 177.152l-41.984-41.984-24.064 24.064c-6.144 6.144-15.872 6.144-21.504 0-6.144-6.144-6.144-15.872 0-21.504l32.768-32.768c3.584-3.584 8.704-5.632 13.312-5.632 5.12 0 9.728 2.048 13.312 5.632l50.176 50.176c6.144 6.144 6.144 15.872 0 21.504-6.144 6.656-15.872 6.656-22.016 0.512z" />
<glyph unicode="&#x141;" glyph-name="control_navigator_center" d="M350.72 749.056c0-8.704-6.656-15.36-15.36-15.36h-125.44v-125.44c0-8.704-6.656-15.36-15.36-15.36s-15.36 6.656-15.36 15.36v140.8c0 8.704 6.656 15.36 15.36 15.36h140.8c8.704 0 15.36-7.168 15.36-15.36zM335.36 162.304h-125.44v125.44c0 8.704-6.656 15.36-15.36 15.36s-15.36-6.656-15.36-15.36v-140.8c0-8.704 6.656-15.36 15.36-15.36h140.8c8.704 0 15.36 6.656 15.36 15.36s-6.656 15.36-15.36 15.36zM829.44 764.416h-140.8c-8.704 0-15.36-6.656-15.36-15.36s6.656-15.36 15.36-15.36h125.44v-125.44c0-8.704 6.656-15.36 15.36-15.36s15.36 6.656 15.36 15.36v140.8c0 8.192-6.656 15.36-15.36 15.36zM829.44 303.616c-8.704 0-15.36-6.656-15.36-15.36v-125.44h-125.44c-8.704 0-15.36-6.656-15.36-15.36s6.656-15.36 15.36-15.36h140.8c8.704 0 15.36 6.656 15.36 15.36v140.8c0 8.192-6.656 15.36-15.36 15.36zM577.536 448c0-36.864-29.696-66.56-65.536-66.56-36.352 0-65.536 29.696-65.536 66.56s29.696 66.56 65.536 66.56c36.352 0 65.536-29.696 65.536-66.56zM546.816 448c0 19.968-15.872 35.84-34.816 35.84-19.456 0-34.816-15.872-34.816-35.84s15.872-35.84 34.816-35.84c19.456 0 34.816 15.872 34.816 35.84z" />
<glyph unicode="&#x142;" glyph-name="control_navigator_down" d="M829.952 590.848l-289.28-289.28c-7.68-7.68-17.92-11.776-29.184-11.776s-20.992 4.096-29.184 11.776l-288.256 289.28c-6.144 6.144-6.144 15.872 0 21.504 6.144 6.144 15.872 6.144 21.504 0l289.28-289.28c4.096-4.096 10.24-4.096 14.336 0l289.28 289.28c6.144 6.144 15.872 6.144 21.504 0 6.144-5.632 6.144-15.872 0-21.504z" />
<glyph unicode="&#x143;" glyph-name="control_navigator_left" d="M676.352 151.552c6.144-6.144 6.144-15.872 0-21.504-3.072-3.072-7.168-4.608-10.752-4.608s-7.68 1.536-10.752 4.608l-289.28 289.28c-15.872 15.872-15.872 41.984 0 57.856l289.28 289.28c6.144 6.144 15.872 6.144 21.504 0 6.144-6.144 6.144-15.872 0-21.504l-288.768-289.792c-4.096-4.096-4.096-10.24 0-14.336l288.768-289.28z" />
<glyph unicode="&#x144;" glyph-name="control_navigator_right" d="M658.432 418.816l-289.28-289.28c-3.072-3.072-7.168-4.608-10.752-4.608s-7.68 1.536-10.752 4.608c-6.144 6.144-6.144 15.872 0 21.504l289.28 289.28c4.096 4.096 4.096 10.24 0 14.336l-289.28 289.792c-6.144 6.144-6.144 15.872 0 21.504 6.144 6.144 15.872 6.144 21.504 0l289.28-289.28c15.872-15.872 15.872-41.472 0-57.856z" />
<glyph unicode="&#x145;" glyph-name="control_navigator_up" d="M829.952 283.648c-3.072-3.072-7.168-4.608-10.752-4.608s-7.68 1.536-10.752 4.608l-289.28 289.28c-4.096 4.096-10.752 4.096-14.336 0l-289.28-289.28c-6.144-6.144-15.872-6.144-21.504 0-6.144 6.144-6.144 15.872 0 21.504l289.28 289.28c7.68 7.68 17.92 11.776 29.184 11.776s20.992-4.096 29.184-11.776l289.28-289.28c5.12-5.632 5.12-15.872-1.024-21.504z" />
<glyph unicode="&#x146;" glyph-name="control_scale_decrease" d="M786.432 448c0-8.704-6.656-15.36-15.36-15.36h-518.144c-8.704 0-15.36 6.656-15.36 15.36s6.656 15.36 15.36 15.36h517.632c8.704 0 15.872-6.656 15.872-15.36z" />
<glyph unicode="&#x147;" glyph-name="control_scale_increase" d="M783.36 448c0-8.704-6.656-15.36-15.36-15.36h-240.64v-240.64c0-8.704-6.656-15.36-15.36-15.36s-15.36 6.656-15.36 15.36v240.64h-240.64c-8.704 0-15.36 6.656-15.36 15.36s6.656 15.36 15.36 15.36h240.64v240.64c0 8.704 6.656 15.36 15.36 15.36s15.36-6.656 15.36-15.36v-240.64h240.64c8.704 0 15.36-6.656 15.36-15.36z" />
<glyph unicode="&#x148;" glyph-name="debug_outline" d="M0 960v-1024h1024v1024h-1024zM998.4-38.4h-972.8v972.8h972.8v-972.8zM921.6 37.888l0.512 0.512v819.2l-0.512 0.512-819.712-0.512v-819.2l0.512-0.512h819.2zM511.488 38.912h-407.552l101.376 101.376h306.176v-101.376zM294.912 231.936c-55.296 55.296-89.088 131.584-89.6 215.552h305.152l-215.552-215.552zM294.912 229.888c49.664-49.664 116.224-81.92 189.952-88.576h-278.528l88.576 88.576zM205.312 448.512c0 83.968 34.304 160.256 89.6 215.552l215.552-215.552h-305.152zM206.336 754.688h278.528c-73.728-6.656-140.288-38.912-189.952-88.576l-88.576 88.576zM293.888 665.088c-49.664-49.664-81.92-116.224-88.576-189.952v278.528l88.576-88.576zM293.888 230.912l-88.576-88.576v278.528c6.656-73.728 39.424-140.288 88.576-189.952zM511.488 141.312c-83.968 0-160.256 34.304-215.552 89.6l215.552 215.552v-305.152zM511.488 449.536l-215.552 215.552c55.296 55.296 131.584 89.088 215.552 89.6v-305.152zM921.088 39.936l-101.376 101.376v306.176h101.376v-407.552zM921.088 448.512h-101.376v306.176l101.376 101.376v-407.552zM512.512 857.088h407.552l-101.376-101.376h-306.176v101.376zM729.088 664.064c55.296-55.296 89.088-131.584 89.6-215.552h-305.152l215.552 215.552zM729.088 666.112c-49.664 49.664-116.224 81.92-189.952 88.576h278.528l-88.576-88.576zM818.688 447.488c0-83.968-34.304-160.256-89.6-215.552l-215.552 215.552h305.152zM817.664 141.312h-278.528c73.728 6.656 140.288 38.912 189.952 88.576l88.576-88.576zM730.112 230.912c49.664 49.664 81.92 116.224 88.576 189.952v-278.528l-88.576 88.576zM730.112 665.088l88.576 88.576v-278.528c-6.656 73.728-39.424 140.288-88.576 189.952zM512.512 754.688c83.968 0 160.256-34.304 215.552-89.6l-215.552-215.552v305.152zM512.512 446.464l215.552-215.552c-55.296-55.296-131.584-89.088-215.552-89.6v305.152zM512.512 140.288h306.176l101.376-101.376h-407.552v101.376zM511.488 857.088v-101.376h-306.176l-101.376 101.376h407.552zM102.912 856.064l101.376-101.376v-306.176h-101.376v407.552zM102.912 447.488h101.376v-306.176l-101.376-101.376v407.552z" />
<glyph unicode="&#x149;" glyph-name="device_central" d="M663.040 180.224c3.584-7.68 0.512-16.896-6.656-20.48-45.056-22.528-93.696-34.304-144.384-34.304s-99.328 11.264-144.384 34.304c-7.68 3.584-10.752 12.8-6.656 20.48s12.8 10.752 20.48 6.656c40.96-20.48 84.48-30.72 130.56-30.72s89.6 10.24 130.56 30.72c7.68 4.096 16.896 1.024 20.48-6.656zM244.224 599.040c-7.68 3.584-16.896 0.512-20.48-6.656-23.040-45.056-34.304-93.696-34.304-144.384s11.264-99.328 34.304-144.384c2.56-5.632 8.192-8.704 13.824-8.704 2.56 0 4.608 0.512 6.656 1.536 7.68 3.584 10.752 12.8 6.656 20.48-20.48 40.96-30.72 84.48-30.72 130.56 0 45.568 10.24 89.6 30.72 130.56 4.096 8.192 1.024 17.408-6.656 20.992zM800.256 592.384c-3.584 7.68-12.8 10.752-20.48 6.656-7.68-3.584-10.752-12.8-6.656-20.48 20.48-40.96 30.72-84.48 30.72-130.56 0-45.568-10.24-89.6-30.72-130.56-3.584-7.68-0.512-16.896 6.656-20.48 2.048-1.024 4.608-1.536 6.656-1.536 5.632 0 11.264 3.072 13.824 8.704 22.528 45.056 34.304 93.696 34.304 144.384 0 50.176-11.264 98.816-34.304 143.872zM381.44 709.12c40.96 20.48 84.48 30.72 130.56 30.72s89.6-10.24 130.56-30.72c2.048-1.024 4.608-1.536 6.656-1.536 5.632 0 11.264 3.072 13.824 8.704 3.584 7.68 0.512 16.896-6.656 20.48-45.056 22.528-93.696 34.304-144.384 34.304s-99.328-11.264-144.384-34.304c-7.68-3.584-10.752-12.8-6.656-20.48 3.584-8.192 12.8-11.264 20.48-7.168zM427.52 617.472c26.112 13.312 54.784 19.968 84.48 19.968s58.368-6.656 84.48-19.968c2.048-1.024 4.608-1.536 6.656-1.536 5.632 0 11.264 3.072 13.824 8.704 3.584 7.68 0.512 16.896-6.656 20.48-30.72 15.36-64 23.040-98.304 23.040s-67.584-7.68-98.304-23.040c-7.68-3.584-10.752-12.8-6.656-20.48 3.584-7.68 12.8-10.752 20.48-7.168zM596.48 278.528c-26.624-13.312-54.784-19.968-84.48-19.968s-58.368 6.656-84.48 19.968c-7.68 3.584-16.896 0.512-20.48-6.656s-0.512-16.896 6.656-20.48c30.72-15.36 64-23.040 98.304-23.040s67.584 7.68 98.304 23.040c7.68 3.584 10.752 12.8 6.656 20.48-3.584 7.168-12.8 10.24-20.48 6.656zM688.128 553.472c-7.68-3.584-10.752-12.8-6.656-20.48 13.312-26.624 19.968-54.784 19.968-84.48s-6.656-58.368-19.968-84.48c-3.584-7.68-0.512-16.896 6.656-20.48 2.048-1.024 4.608-1.536 6.656-1.536 5.632 0 11.264 3.072 13.824 8.704 15.36 30.72 23.040 64 23.040 98.304s-7.68 67.584-23.040 98.304c-3.584 6.656-12.8 9.728-20.48 6.144zM322.56 448c0 29.696 6.656 58.368 19.968 84.48 3.584 7.68 0.512 16.896-6.656 20.48-7.68 3.584-16.896 0.512-20.48-6.656-15.36-30.72-23.040-64-23.040-98.304s7.68-67.584 23.040-98.304c2.56-5.12 8.192-8.704 13.824-8.704 2.56 0 4.608 0.512 6.656 1.536 7.68 3.584 10.752 12.8 6.656 20.48-13.312 26.624-19.968 55.296-19.968 84.992zM629.76 448c0-18.432-4.096-35.84-12.288-52.736-11.264-22.528-30.208-41.472-52.736-52.736-16.384-8.192-34.304-12.288-52.736-12.288s-35.84 4.096-52.736 12.288c-22.528 11.264-41.472 30.208-52.736 52.736-8.192 16.896-12.288 34.304-12.288 52.736s4.096 35.84 12.288 52.736c11.264 22.528 30.208 41.472 52.736 52.736 16.896 8.192 34.304 12.288 52.736 12.288s35.84-4.096 52.736-12.288c22.528-11.264 41.472-30.208 52.736-52.736 8.192-16.896 12.288-34.304 12.288-52.736zM599.040 448c0 13.312-3.072 26.624-9.216 38.912-8.192 16.896-22.016 30.72-38.912 38.912-12.288 6.144-25.088 9.216-38.912 9.216s-26.624-3.072-38.912-9.216c-16.896-8.192-30.72-22.016-38.912-38.912-6.144-12.288-9.216-25.088-9.216-38.912 0-13.312 3.072-26.624 9.216-38.912 8.192-16.896 22.016-30.72 38.912-38.912 24.576-12.288 53.248-12.288 77.824 0 16.896 8.192 30.72 22.016 38.912 38.912 6.144 12.288 9.216 25.6 9.216 38.912z" />
</font>
</defs>
</svg>
